{"glyphs":{"0":{"ha":919,"x_min":0,"x_max":0,"o":"m 461 721 b 77 354 250 724 75 572 b 461 -14 75 133 250 -17 b 843 354 671 -14 843 129 b 461 721 846 564 667 724 z m 460 536 b 618 353 549 536 618 464 b 460 171 618 243 549 171 b 301 353 369 171 301 242 b 460 536 301 464 369 536 z "},"1":{"ha":631,"x_min":0,"x_max":0,"o":"m 507 707 l 296 707 l 33 458 l 158 332 l 294 464 l 294 0 l 507 0 z "},"2":{"ha":800,"x_min":0,"x_max":0,"o":"m 733 170 l 458 170 b 611 256 521 198 560 220 b 672 313 636 274 656 293 b 726 469 703 351 726 408 b 637 653 726 547 696 608 b 411 721 578 699 503 721 b 66 583 269 721 140 665 l 182 450 b 386 536 245 508 313 536 b 507 446 461 536 507 507 b 450 338 507 406 488 370 b 366 277 423 314 404 300 b 260 224 326 256 306 246 l 205 201 b 97 155 182 190 115 163 l 97 0 l 733 0 z "},"3":{"ha":836,"x_min":0,"x_max":0,"o":"m 370 -257 b 749 22 608 -257 749 -149 b 575 253 749 137 691 214 b 710 464 660 297 710 370 b 399 721 710 631 566 721 b 72 611 268 721 165 689 l 176 465 b 363 536 237 513 299 536 b 489 431 433 534 489 495 b 277 310 489 357 434 310 l 277 163 b 526 39 441 161 525 120 b 366 -74 526 -38 466 -74 b 153 25 281 -74 210 -41 l 11 -102 b 370 -257 92 -202 198 -257 z "},"4":{"ha":861,"x_min":0,"x_max":0,"o":"m 277 171 l 517 541 l 517 171 z m 854 171 l 729 171 l 729 707 l 407 707 l 28 146 l 28 0 l 517 0 l 517 -243 l 729 -243 l 729 0 l 854 0 z "},"5":{"ha":868,"x_min":0,"x_max":0,"o":"m 432 -257 b 791 61 636 -255 791 -145 b 471 336 791 242 646 336 b 343 322 434 336 391 332 l 343 513 l 747 513 l 747 707 l 136 707 l 136 196 l 310 138 b 431 165 346 156 387 165 b 568 49 513 165 568 121 b 418 -72 568 -27 507 -72 b 205 21 341 -72 270 -41 l 66 -118 b 432 -257 157 -214 269 -257 z "},"6":{"ha":932,"x_min":0,"x_max":0,"o":"m 854 315 b 542 604 854 508 703 604 b 286 511 425 604 348 571 b 562 791 300 699 388 791 b 737 761 627 791 685 781 l 803 936 b 568 979 736 965 657 979 b 77 433 297 979 77 808 b 469 -14 77 138 221 -14 b 854 315 689 -12 854 105 z m 632 307 b 475 171 632 222 567 171 b 304 302 376 171 304 223 b 469 437 304 391 370 435 b 632 307 562 437 632 392 z "},"7":{"ha":703,"x_min":0,"x_max":0,"o":"m 661 539 l 661 707 l 21 707 l 21 511 l 436 511 l 125 -184 l 315 -257 z "},"8":{"ha":1009,"x_min":0,"x_max":0,"o":"m 505 -14 b 920 271 715 -14 920 58 b 755 503 920 380 865 457 b 878 713 837 548 878 618 b 505 981 880 906 696 981 b 127 710 312 981 127 905 b 252 500 126 616 168 546 b 90 271 144 454 90 378 b 505 -14 90 56 294 -14 z m 505 804 b 659 690 592 804 659 766 b 505 572 659 612 593 572 b 347 690 416 572 347 612 b 505 804 347 768 416 804 z m 576 412 b 696 290 642 398 696 364 b 505 164 696 193 601 164 b 314 290 410 164 314 193 b 576 412 314 409 464 436 z "},"9":{"ha":932,"x_min":0,"x_max":0,"o":"m 298 400 b 456 534 298 485 363 534 b 627 404 558 534 627 488 b 463 269 627 317 560 269 b 298 400 370 269 298 313 z m 364 -257 b 854 273 633 -257 854 -92 b 457 721 854 569 711 721 b 184 633 346 720 255 690 b 77 392 113 574 77 494 b 390 103 77 199 229 103 b 646 193 492 103 577 133 b 370 -71 627 20 535 -71 b 193 -41 302 -71 243 -61 l 127 -214 b 364 -257 196 -243 275 -257 z "}," ":{"ha":402,"x_min":0,"x_max":0,"o":""},"!":{"ha":536,"x_min":0,"x_max":0,"o":"m 370 966 l 165 966 l 165 379 l 370 379 z m 174 203 b 136 111 149 178 136 148 b 268 -14 136 40 194 -14 b 400 111 342 -14 400 40 b 174 203 408 226 250 279 z "},"\"":{"ha":615,"x_min":0,"x_max":0,"o":"m 77 1036 l 77 551 l 229 551 l 229 1036 z m 386 1036 l 386 551 l 539 551 l 539 1036 z "},"#":{"ha":1200,"x_min":0,"x_max":0,"o":"m 456 301 l 521 542 l 746 542 l 682 301 z m 1082 301 l 865 301 l 930 542 l 1137 542 l 1137 707 l 975 707 l 1029 909 l 857 956 l 790 707 l 566 707 l 623 921 l 452 965 l 382 707 l 118 707 l 118 542 l 338 542 l 272 301 l 62 301 l 62 138 l 228 138 l 168 -83 l 340 -127 l 411 138 l 637 138 l 575 -96 l 747 -139 l 822 138 l 1082 138 z "},"$":{"ha":843,"x_min":0,"x_max":0,"o":"m 513 -9 b 753 212 642 9 753 71 b 640 381 753 300 714 351 b 453 425 586 401 536 414 b 336 453 393 435 354 444 b 309 494 317 462 309 475 b 393 545 309 530 334 545 b 677 497 486 545 597 530 l 734 657 b 513 715 667 686 593 706 l 517 929 l 357 929 l 361 718 b 109 500 208 704 109 629 b 191 350 109 433 137 382 b 390 283 245 317 302 300 b 519 252 455 271 498 261 b 550 210 540 243 550 229 b 443 157 550 169 510 157 b 160 214 341 157 247 176 l 90 56 b 361 -11 170 20 260 -3 l 357 -222 l 517 -222 z "},"%":{"ha":1734,"x_min":0,"x_max":0,"o":"m 575 -72 l 1231 1082 l 1092 1161 l 436 7 z m 370 1131 b 83 806 180 1131 83 978 b 370 479 83 633 180 479 b 654 806 557 479 654 634 b 370 1131 654 977 556 1131 z m 368 953 b 475 804 452 953 475 875 b 368 657 475 733 452 657 b 262 804 285 657 262 734 b 368 953 262 875 286 953 z m 1326 643 b 1326 -9 945 654 945 -20 b 1611 317 1513 -9 1611 145 b 1326 643 1611 488 1513 643 z m 1325 464 b 1432 315 1409 464 1432 386 b 1325 168 1432 244 1409 168 b 1219 315 1242 168 1219 245 b 1325 464 1219 386 1243 464 z "},"&":{"ha":1023,"x_min":0,"x_max":0,"o":"m 901 258 b 835 412 901 315 879 367 l 978 412 l 978 564 l 595 564 l 595 412 b 679 290 652 377 679 345 b 488 161 679 191 583 161 b 296 286 394 161 296 191 b 488 412 296 382 392 412 l 488 564 b 330 681 398 564 330 603 b 488 791 330 756 398 791 b 640 679 576 791 640 755 l 861 679 b 488 966 861 887 680 966 b 110 699 294 966 112 893 b 233 493 110 607 151 538 b 74 267 127 448 74 372 b 488 -14 74 56 279 -14 b 901 258 698 -14 901 58 z "},"'":{"ha":305,"x_min":0,"x_max":0,"o":"m 77 1036 l 77 551 l 229 551 l 229 1036 z "},"(":{"ha":553,"x_min":0,"x_max":0,"o":"m 412 1082 b 77 418 189 906 77 684 b 415 -224 77 166 189 -48 l 529 -85 b 257 418 348 56 257 223 b 532 949 257 629 349 806 z "},")":{"ha":553,"x_min":0,"x_max":0,"o":"m 140 -224 b 476 440 364 -48 476 174 b 138 1082 476 692 363 906 l 24 943 b 296 440 205 803 296 635 b 21 -90 296 229 204 52 z "},"*":{"ha":789,"x_min":0,"x_max":0,"o":"m 501 694 l 733 685 l 726 863 l 497 838 l 578 1054 l 407 1104 l 359 875 l 176 1021 l 77 875 l 277 758 l 83 631 l 193 490 l 366 647 l 429 422 l 596 485 z "},"+":{"ha":769,"x_min":0,"x_max":0,"o":"m 718 443 l 468 443 l 468 697 l 302 697 l 302 443 l 53 443 l 53 278 l 302 278 l 302 32 l 468 32 l 468 278 l 718 278 z "},",":{"ha":462,"x_min":0,"x_max":0,"o":"m 235 -196 b 289 -80 260 -144 277 -105 b 329 17 300 -55 313 -22 b 371 201 359 95 371 149 b 235 355 371 292 313 355 b 94 222 156 355 94 295 b 193 96 94 159 133 111 b 97 -134 173 36 141 -41 l 235 -196 z "},"-":{"ha":647,"x_min":0,"x_max":0,"o":"m 590 433 l 56 433 l 56 279 l 590 279 z "},".":{"ha":430,"x_min":0,"x_max":0,"o":"m 121 203 b 83 111 96 178 83 148 b 215 -14 83 40 141 -14 b 347 111 289 -14 347 40 b 121 203 355 226 197 279 z "},"/":{"ha":564,"x_min":0,"x_max":0,"o":"m 197 -200 l 542 1074 l 366 1120 l 21 -154 z "},":":{"ha":430,"x_min":0,"x_max":0,"o":"m 121 673 b 83 582 96 649 83 618 b 215 457 83 511 141 457 b 347 582 289 457 347 511 b 121 673 355 696 197 751 z m 121 203 b 83 111 96 178 83 148 b 215 -14 83 40 141 -14 b 347 111 289 -14 347 40 b 121 203 355 226 197 279 z "},";":{"ha":462,"x_min":0,"x_max":0,"o":"m 133 673 b 94 582 107 649 94 618 b 227 457 94 511 153 457 b 358 582 300 457 358 511 b 133 673 366 694 208 753 z m 235 -196 b 289 -80 260 -144 277 -105 b 329 17 300 -55 313 -22 b 371 201 359 95 371 149 b 235 355 371 292 313 355 b 94 222 156 355 94 295 b 193 96 94 159 133 111 b 97 -134 173 36 141 -41 z "},"<":{"ha":827,"x_min":0,"x_max":0,"o":"m 766 146 l 253 354 l 766 564 l 701 722 l 72 454 l 72 256 l 700 -12 z "},"=":{"ha":805,"x_min":0,"x_max":0,"o":"m 734 585 l 69 585 l 69 419 l 734 419 z m 734 267 l 69 267 l 69 102 l 734 102 z "},">":{"ha":827,"x_min":0,"x_max":0,"o":"m 755 254 l 755 453 l 127 721 l 61 562 l 575 354 l 61 144 l 126 -14 z "},"?":{"ha":719,"x_min":0,"x_max":0,"o":"m 422 358 b 456 478 422 404 432 442 b 528 562 481 513 493 526 b 602 652 564 598 576 613 b 636 781 626 689 636 730 b 338 1008 636 921 515 1008 b 21 859 200 1008 86 941 l 153 739 b 322 827 201 797 250 827 b 425 734 382 827 425 791 b 397 663 425 707 409 677 b 332 596 389 652 338 605 b 233 358 271 536 233 470 z m 227 203 b 189 111 202 178 189 148 b 321 -14 189 40 247 -14 b 453 111 395 -14 453 40 b 227 203 461 226 303 279 z "},"@":{"ha":1364,"x_min":0,"x_max":0,"o":"m 589 -222 b 296 313 395 -120 297 58 b 711 802 292 592 477 807 b 1029 627 863 802 970 740 b 878 665 983 652 932 665 b 627 566 774 665 690 631 b 530 304 562 500 530 412 b 632 72 530 206 564 129 b 895 -14 700 15 787 -14 b 1181 105 1013 -14 1108 26 b 1291 418 1254 184 1291 288 b 718 987 1294 757 1053 991 b 74 311 340 990 68 705 b 475 -392 74 2 208 -254 z m 911 175 b 753 323 821 175 753 232 b 924 493 753 429 820 493 b 1078 429 981 493 1032 472 l 1078 404 b 911 175 1078 267 1015 177 z "},"A":{"ha":1006,"x_min":0,"x_max":0,"o":"m 358 330 l 497 796 l 640 330 z m 975 0 l 675 937 l 334 937 l 32 0 l 261 0 l 306 150 l 697 150 l 743 0 z "},"B":{"ha":1063,"x_min":0,"x_max":0,"o":"m 557 755 b 650 747 603 755 616 755 b 690 728 665 743 679 736 b 722 656 711 709 722 685 b 603 553 722 588 675 553 l 368 553 l 368 755 z m 629 395 b 764 289 719 395 764 359 b 720 203 764 254 749 225 b 599 180 680 181 647 180 l 368 180 l 368 395 z m 629 0 b 781 10 696 0 727 1 b 918 74 834 18 878 39 b 1002 264 974 119 1002 183 b 831 486 1002 374 939 449 b 958 692 916 527 958 595 b 882 872 958 770 932 830 b 747 929 843 903 802 922 b 678 936 720 932 696 935 b 596 937 659 937 632 937 l 146 937 l 146 0 z "},"C":{"ha":998,"x_min":0,"x_max":0,"o":"m 982 753 b 576 950 895 878 745 950 b 74 465 291 950 74 756 b 576 -14 74 180 286 -14 b 972 155 739 -14 880 54 l 817 293 b 576 199 762 236 674 199 b 383 271 498 199 434 223 b 307 465 332 319 307 384 b 576 737 307 630 414 737 b 810 624 675 737 753 699 l 982 753 z "},"D":{"ha":1137,"x_min":0,"x_max":0,"o":"m 504 732 b 586 730 540 732 567 731 b 656 716 605 729 629 724 b 732 679 684 708 709 696 b 832 472 799 629 832 561 b 725 250 832 372 796 298 b 617 210 692 229 660 215 b 500 204 574 204 555 204 l 368 204 l 368 732 z m 503 0 b 585 1 538 0 566 1 b 659 7 604 2 629 4 b 822 61 718 15 768 32 b 1065 472 970 140 1065 289 b 857 857 1065 642 985 778 b 674 928 800 895 742 919 b 591 936 640 932 612 935 b 501 937 570 937 541 937 l 146 937 l 146 0 z "},"E":{"ha":998,"x_min":0,"x_max":0,"o":"m 932 0 l 932 180 l 368 180 l 368 390 l 793 390 l 793 562 l 368 562 l 368 755 l 916 755 l 916 937 l 146 937 l 146 0 z "},"F":{"ha":880,"x_min":0,"x_max":0,"o":"m 722 518 l 368 518 l 368 732 l 846 732 l 846 937 l 146 937 l 146 0 l 368 0 l 368 330 l 722 330 z "},"G":{"ha":1101,"x_min":0,"x_max":0,"o":"m 1022 532 l 551 532 l 551 367 l 814 367 l 814 256 b 618 192 771 213 706 192 b 392 269 522 192 447 218 b 309 468 336 321 309 387 b 590 737 309 639 441 737 b 832 639 690 737 770 705 l 986 779 b 583 951 899 894 765 951 b 74 468 325 951 74 777 b 593 -14 68 191 286 -17 b 1022 187 770 -14 935 58 z "},"H":{"ha":1179,"x_min":0,"x_max":0,"o":"m 1034 0 l 1034 937 l 811 937 l 811 570 l 368 570 l 368 937 l 146 937 l 146 0 l 368 0 l 368 382 l 811 382 l 811 0 z "},"I":{"ha":513,"x_min":0,"x_max":0,"o":"m 146 0 l 368 0 l 368 937 l 146 937 z "},"J":{"ha":557,"x_min":0,"x_max":0,"o":"m 189 218 b 176 90 189 157 189 133 b 147 29 170 67 160 47 b 4 -71 123 -6 75 -39 l 100 -249 b 353 -43 216 -208 300 -140 b 404 115 380 8 397 56 b 410 188 408 144 410 169 b 411 268 411 206 411 233 l 411 937 l 189 937 z "},"K":{"ha":1023,"x_min":0,"x_max":0,"o":"m 1038 0 l 590 473 l 985 937 l 722 937 l 368 515 l 368 937 l 146 937 l 146 0 l 368 0 l 368 407 l 737 0 z "},"L":{"ha":831,"x_min":0,"x_max":0,"o":"m 836 0 l 836 204 l 368 204 l 368 937 l 146 937 l 146 0 z "},"M":{"ha":1508,"x_min":0,"x_max":0,"o":"m 918 0 l 1157 757 l 1152 0 l 1362 0 l 1362 937 l 1002 937 l 758 154 l 518 937 l 146 937 l 146 0 l 349 0 l 347 768 l 585 0 z "},"N":{"ha":1187,"x_min":0,"x_max":0,"o":"m 1042 0 l 1042 937 l 832 937 l 832 186 l 507 937 l 146 937 l 146 0 l 355 0 l 355 742 l 672 0 z "},"O":{"ha":1183,"x_min":0,"x_max":0,"o":"m 391 916 b 74 468 205 846 74 686 b 591 -14 68 188 312 -19 b 1109 468 871 -19 1115 188 b 792 916 1109 686 979 846 b 391 916 665 963 517 963 z m 591 742 b 795 667 672 742 740 717 b 878 468 850 616 878 550 b 795 270 878 386 850 320 b 591 195 740 220 672 195 b 389 270 511 195 444 220 b 307 468 334 320 307 386 b 389 667 307 550 334 616 b 591 742 444 717 511 742 z "},"P":{"ha":1063,"x_min":0,"x_max":0,"o":"m 524 758 b 648 746 582 758 606 757 b 705 718 669 740 688 730 b 766 585 746 690 766 646 b 708 453 766 523 747 479 b 593 415 673 429 625 417 b 525 414 577 414 554 414 l 368 414 l 368 758 z m 545 235 b 713 245 618 235 652 236 b 869 315 773 256 823 278 b 1000 593 957 378 1000 470 b 895 848 1000 705 965 789 b 692 932 825 902 770 923 b 551 937 628 937 618 937 l 146 937 l 146 0 l 368 0 l 368 235 z "},"Q":{"ha":1183,"x_min":0,"x_max":0,"o":"m 1089 -121 l 929 96 b 1109 468 1043 183 1109 314 b 591 951 1109 755 876 951 b 74 468 307 951 74 755 b 591 -14 68 188 312 -19 b 745 5 643 -14 694 -7 l 922 -239 z m 591 742 b 795 667 672 742 740 717 b 878 468 850 616 878 550 b 795 270 878 386 850 320 b 591 195 740 220 672 195 b 389 270 511 195 444 220 b 307 468 334 320 307 386 b 389 667 307 550 334 616 b 591 742 444 717 511 742 z "},"R":{"ha":1104,"x_min":0,"x_max":0,"o":"m 547 758 b 668 747 607 758 626 758 b 722 718 689 741 707 731 b 771 608 755 693 771 656 b 721 496 771 559 754 521 b 614 457 690 470 642 459 b 551 456 600 456 578 456 l 368 456 l 368 758 z m 1015 0 l 777 304 b 893 371 817 319 856 342 b 1004 616 962 423 1004 513 b 911 843 1004 709 973 785 b 737 926 860 889 797 912 b 604 937 701 933 636 935 l 534 937 l 146 937 l 146 0 l 368 0 l 368 277 l 551 277 l 758 0 z "},"S":{"ha":1034,"x_min":0,"x_max":0,"o":"m 922 871 b 533 951 800 924 669 951 b 134 667 328 951 136 867 b 519 382 134 458 330 405 b 704 278 634 366 706 346 b 542 186 704 202 616 186 b 178 279 420 186 299 217 l 87 87 b 525 -14 213 20 359 -14 b 951 285 711 -14 951 53 b 805 503 951 399 892 463 b 608 555 744 532 686 545 l 589 559 b 446 587 519 569 472 578 b 370 664 395 604 370 630 b 510 751 369 724 425 751 b 846 677 622 751 734 727 l 922 871 z "},"T":{"ha":865,"x_min":0,"x_max":0,"o":"m 856 937 l 11 937 l 11 732 l 322 732 l 322 0 l 543 0 l 543 732 l 856 732 z "},"U":{"ha":1136,"x_min":0,"x_max":0,"o":"m 1008 937 l 786 937 l 786 449 b 745 267 786 359 781 312 b 567 199 705 221 646 199 b 392 267 488 199 429 221 b 352 378 366 298 354 345 b 350 449 351 394 350 418 l 350 937 l 129 937 l 129 425 b 135 296 129 368 130 347 b 149 232 138 271 142 250 b 218 115 160 197 184 151 b 562 -14 298 29 412 -14 b 917 115 714 -14 838 31 b 997 264 963 164 983 216 b 1008 370 1006 293 1006 345 l 1008 427 z "},"V":{"ha":1017,"x_min":0,"x_max":0,"o":"m 985 937 l 755 937 l 517 125 l 268 937 l 32 937 l 329 0 l 685 0 z "},"W":{"ha":1611,"x_min":0,"x_max":0,"o":"m 1336 0 l 1579 937 l 1357 937 l 1166 114 l 996 937 l 628 937 l 458 122 l 267 937 l 32 937 l 282 0 l 623 0 l 806 799 l 981 0 z "},"X":{"ha":1065,"x_min":0,"x_max":0,"o":"m 1022 0 l 671 479 l 1008 937 l 753 937 l 547 647 l 335 937 l 64 937 l 392 489 l 35 0 l 290 0 l 515 319 l 750 0 z "},"Y":{"ha":1004,"x_min":0,"x_max":0,"o":"m 611 307 l 994 937 l 746 937 l 500 511 l 268 937 l 11 937 l 389 309 l 389 0 l 611 0 z "},"Z":{"ha":986,"x_min":0,"x_max":0,"o":"m 909 187 l 375 187 l 871 760 l 871 937 l 92 937 l 92 749 l 583 749 l 77 178 l 77 0 l 909 0 z "},"[":{"ha":555,"x_min":0,"x_max":0,"o":"m 542 -180 l 542 -35 l 315 -35 l 315 946 l 542 946 l 542 1092 l 146 1092 l 146 -180 z "},"\\":{"ha":564,"x_min":0,"x_max":0,"o":"m 197 1124 l 21 1076 l 367 -204 l 543 -157 z "},"]":{"ha":555,"x_min":0,"x_max":0,"o":"m 410 1092 l 14 1092 l 14 946 l 240 946 l 240 -35 l 14 -35 l 14 -180 l 410 -180 z "},"^":{"ha":631,"x_min":0,"x_max":0,"o":"m 604 310 l 318 596 l 37 304 l 138 208 l 318 383 l 498 208 z "},"_":{"ha":647,"x_min":0,"x_max":0,"o":"m 590 155 l 56 155 l 56 1 l 590 1 z "},"`":{"ha":459,"x_min":0,"x_max":0,"o":"m 41 983 l 350 787 l 416 889 l 122 1100 z "},"a":{"ha":909,"x_min":0,"x_max":0,"o":"m 404 136 b 314 215 350 136 314 164 b 349 275 314 242 326 262 b 405 294 365 287 382 292 b 448 297 425 296 422 295 l 468 297 l 576 297 b 404 136 576 197 505 136 z m 785 0 l 785 379 b 777 505 785 440 784 459 b 717 623 768 551 749 587 b 449 721 659 688 570 721 b 127 668 333 721 226 703 l 174 515 b 403 555 262 542 338 555 b 543 507 474 555 521 539 b 568 422 559 488 567 459 l 494 422 b 331 415 421 422 392 420 b 180 361 271 408 223 390 b 90 192 120 325 90 269 b 355 -14 90 43 222 -14 b 593 86 456 -14 536 20 l 612 0 z "},"b":{"ha":961,"x_min":0,"x_max":0,"o":"m 475 -14 b 773 92 599 -13 698 22 b 885 374 848 160 885 254 b 798 625 885 475 856 559 b 575 724 739 690 665 724 b 339 610 475 724 397 686 l 339 965 l 125 965 l 125 56 b 475 -14 227 9 344 -14 z m 472 153 b 339 170 424 153 379 158 l 339 319 b 500 534 339 454 406 534 b 663 357 597 534 663 470 b 472 153 663 231 585 153 z "},"c":{"ha":808,"x_min":0,"x_max":0,"o":"m 765 576 b 454 721 699 670 583 721 b 77 351 275 721 77 600 b 453 -14 77 111 269 -14 b 777 151 597 -14 705 41 l 621 245 b 469 174 590 197 540 174 b 352 224 425 174 385 191 b 301 355 318 257 301 300 b 351 484 301 410 317 452 b 464 532 384 516 421 532 b 624 456 531 532 589 503 l 765 576 z "},"d":{"ha":962,"x_min":0,"x_max":0,"o":"m 463 168 b 298 351 367 168 298 235 b 478 549 298 473 373 549 b 624 497 534 549 583 532 l 624 390 b 463 168 624 249 564 168 z m 836 0 l 836 965 l 624 965 l 624 672 b 431 721 566 703 501 720 b 174 614 324 720 239 684 b 77 335 109 544 77 451 b 167 84 77 233 106 149 b 397 -14 227 19 304 -14 b 633 110 496 -14 578 28 l 659 0 z "},"e":{"ha":908,"x_min":0,"x_max":0,"o":"m 300 415 b 471 566 314 515 371 566 b 624 415 562 566 626 509 z m 736 183 b 538 142 669 155 604 142 b 301 290 393 142 323 184 l 829 290 b 839 412 836 332 839 373 b 472 721 834 623 648 721 b 77 350 267 721 77 599 b 497 -14 77 90 268 -14 b 790 45 614 -14 711 6 z "},"f":{"ha":553,"x_min":0,"x_max":0,"o":"m 517 707 l 372 707 l 372 730 b 452 823 372 792 399 823 b 524 819 477 823 501 822 l 546 975 b 437 985 507 981 471 985 b 160 707 258 985 160 878 l 32 707 l 32 566 l 160 566 l 160 0 l 372 0 l 372 566 l 517 566 z "},"g":{"ha":964,"x_min":0,"x_max":0,"o":"m 463 237 b 298 393 367 237 298 295 b 478 555 298 492 372 555 b 624 498 532 555 580 536 l 624 390 b 463 237 624 294 564 237 z m 447 -253 b 791 -90 621 -253 735 -199 b 838 71 822 -39 834 30 b 839 165 838 92 839 124 l 839 707 l 657 707 l 647 657 b 431 721 585 699 513 720 b 174 625 324 720 239 688 b 77 376 109 562 77 479 b 167 155 77 286 106 212 b 397 69 227 98 304 69 b 643 180 505 69 587 106 l 643 102 b 444 -89 643 -25 568 -89 b 184 -22 355 -89 251 -60 l 111 -174 b 447 -253 200 -222 319 -253 z "},"h":{"ha":970,"x_min":0,"x_max":0,"o":"m 338 317 b 507 532 338 458 406 532 b 606 494 549 532 582 519 b 633 382 633 458 633 431 l 633 0 l 846 0 l 846 419 b 841 507 846 461 846 470 b 832 552 839 526 836 541 b 787 633 825 574 809 608 b 567 721 740 692 667 721 b 338 621 468 721 391 688 l 338 965 l 125 965 l 125 0 l 338 0 l 338 317 z "},"i":{"ha":464,"x_min":0,"x_max":0,"o":"m 233 1026 b 114 921 165 1026 114 983 b 233 817 114 861 165 817 b 351 921 300 817 351 861 b 233 1026 351 983 300 1026 z m 125 0 l 339 0 l 339 707 l 125 707 z "},"j":{"ha":493,"x_min":0,"x_max":0,"o":"m 261 1026 b 142 921 193 1026 142 983 b 261 817 142 861 194 817 b 379 921 328 817 379 861 b 261 1026 379 983 328 1026 z m 154 216 b 145 85 154 151 154 129 b 125 25 140 63 134 43 b -24 -93 99 -26 50 -66 l 64 -261 b 319 -50 187 -217 273 -146 b 367 142 351 10 363 95 b 368 244 368 166 368 200 l 368 707 l 154 707 z "},"k":{"ha":875,"x_min":0,"x_max":0,"o":"m 878 0 l 549 358 l 835 707 l 590 707 l 338 397 l 338 965 l 125 965 l 125 0 l 338 0 l 338 302 l 602 0 z "},"l":{"ha":464,"x_min":0,"x_max":0,"o":"m 339 0 l 339 965 l 125 965 l 125 0 z "},"m":{"ha":1478,"x_min":0,"x_max":0,"o":"m 507 532 b 606 494 549 532 582 519 b 633 382 633 458 633 431 l 633 0 l 846 0 l 846 317 b 1014 532 846 458 911 532 b 1112 494 1057 532 1090 519 b 1140 382 1140 458 1140 431 l 1140 0 l 1353 0 l 1353 419 b 1345 528 1353 472 1351 485 b 1296 633 1338 570 1322 602 b 1074 721 1249 692 1175 721 b 819 583 958 721 873 675 b 787 633 814 597 803 614 b 567 721 740 692 667 721 b 323 603 459 721 378 682 l 304 707 l 125 707 l 125 0 l 339 0 l 339 350 b 507 532 348 470 412 532 z "},"n":{"ha":970,"x_min":0,"x_max":0,"o":"m 505 532 b 604 494 549 532 582 519 b 633 382 633 458 633 430 l 633 0 l 846 0 l 846 419 b 839 528 846 469 846 487 b 789 633 833 569 816 602 b 567 721 741 692 667 721 b 323 603 459 721 378 682 l 304 707 l 125 707 l 125 0 l 339 0 l 339 351 b 505 532 348 471 411 532 z "},"o":{"ha":936,"x_min":0,"x_max":0,"o":"m 469 721 b 184 620 351 721 256 687 b 77 353 113 553 77 463 b 184 87 77 242 113 154 b 469 -14 256 20 351 -14 b 753 87 587 -14 682 20 b 860 353 824 154 860 242 b 753 620 860 463 824 553 b 469 721 681 687 587 721 z m 469 534 b 639 353 572 534 639 465 b 469 172 639 241 572 172 b 298 353 364 172 298 241 b 469 534 298 465 364 534 z "},"p":{"ha":962,"x_min":0,"x_max":0,"o":"m 485 160 b 339 204 429 160 380 175 l 339 319 b 500 532 339 457 409 532 b 663 355 598 532 663 471 b 485 160 663 233 591 160 z m 530 -14 b 787 92 636 -13 722 22 b 885 372 852 160 885 254 b 798 625 885 477 856 562 b 574 721 739 689 664 721 b 326 593 473 721 384 680 l 304 707 l 126 707 l 126 -243 l 339 -243 l 339 37 b 530 -14 397 5 460 -12 z "},"q":{"ha":961,"x_min":0,"x_max":0,"o":"m 836 659 b 496 721 715 700 602 721 b 77 335 235 719 77 575 b 168 81 77 229 107 144 b 401 -14 229 18 307 -14 b 623 93 494 -14 568 22 l 623 -229 l 836 -229 z m 461 174 b 298 351 366 174 298 237 b 484 554 298 479 372 554 b 623 538 530 554 577 549 l 623 389 b 461 174 623 250 553 174 z "},"r":{"ha":616,"x_min":0,"x_max":0,"o":"m 345 317 b 568 515 345 480 440 546 l 596 705 b 519 713 566 711 541 714 b 330 603 440 710 377 673 l 311 707 l 132 707 l 132 0 l 345 0 l 345 317 z "},"s":{"ha":843,"x_min":0,"x_max":0,"o":"m 734 657 b 416 721 636 700 530 721 b 109 500 234 721 109 644 b 191 350 109 433 137 382 b 390 283 245 317 302 300 b 519 252 455 271 498 261 b 550 210 540 243 550 229 b 443 157 550 169 510 157 b 160 214 341 157 247 176 l 90 56 b 440 -14 193 9 310 -14 b 753 212 597 -14 753 47 b 640 381 753 300 714 351 b 453 425 586 401 536 414 b 336 453 393 435 354 444 b 309 494 317 462 309 475 b 393 545 309 530 334 545 b 677 497 486 545 597 530 l 734 657 z "},"t":{"ha":668,"x_min":0,"x_max":0,"o":"m 550 193 b 464 174 520 180 492 174 b 410 200 440 174 422 182 b 393 306 393 227 393 260 l 393 566 l 566 566 l 566 707 l 393 707 l 393 885 l 179 885 l 179 707 l 49 707 l 49 566 l 179 566 l 179 267 b 192 138 179 206 180 182 b 221 78 198 115 208 96 b 431 -14 262 17 332 -14 b 606 26 491 -15 549 -1 z "},"u":{"ha":958,"x_min":0,"x_max":0,"o":"m 833 0 l 833 707 l 621 707 l 621 390 b 461 174 621 247 562 174 b 368 210 420 175 389 187 b 338 322 338 245 338 271 l 338 707 l 125 707 l 125 285 b 134 171 127 231 127 214 b 193 61 142 128 161 96 b 401 -14 240 12 310 -14 b 635 103 507 -14 584 25 l 654 0 z "},"v":{"ha":844,"x_min":0,"x_max":0,"o":"m 821 707 l 603 707 l 415 122 l 254 707 l 25 707 l 235 0 l 583 0 z "},"w":{"ha":1314,"x_min":0,"x_max":0,"o":"m 1100 0 l 1291 707 l 1076 707 l 950 149 l 827 707 l 498 707 l 372 143 l 245 707 l 25 707 l 205 0 l 522 0 l 657 576 l 783 0 z "},"x":{"ha":854,"x_min":0,"x_max":0,"o":"m 414 222 l 578 0 l 831 0 l 558 359 l 814 707 l 585 707 l 449 505 l 297 707 l 56 707 l 302 372 l 25 0 l 252 0 z "},"y":{"ha":817,"x_min":0,"x_max":0,"o":"m 791 707 l 578 707 l 418 215 l 253 707 l 25 707 l 296 -9 l 229 -179 l 422 -261 z "},"z":{"ha":791,"x_min":0,"x_max":0,"o":"m 725 170 l 330 170 l 710 553 l 710 707 l 97 707 l 97 538 l 437 538 l 66 155 l 66 0 l 725 0 z "},"{":{"ha":564,"x_min":0,"x_max":0,"o":"m 541 -29 b 383 146 430 -29 383 18 b 236 457 383 264 342 410 b 370 667 302 491 352 584 b 385 787 380 708 385 749 b 542 961 385 915 433 961 l 542 1114 b 214 831 332 1114 214 1031 b 41 534 214 670 179 534 l 41 378 b 212 103 180 378 212 252 b 541 -182 212 -96 330 -182 z "},"|":{"ha":475,"x_min":0,"x_max":0,"o":"m 329 -214 l 329 1104 l 146 1104 l 146 -214 z "},"}":{"ha":564,"x_min":0,"x_max":0,"o":"m 11 -182 b 339 102 221 -182 339 -98 b 511 397 339 262 374 397 l 511 554 b 340 829 372 554 340 680 b 12 1114 340 1029 223 1114 l 12 961 b 170 786 123 961 170 913 b 317 475 170 667 211 522 b 182 265 250 439 203 349 b 168 144 173 224 168 183 b 11 -29 168 18 121 -29 l 11 -182 z "},"~":{"ha":831,"x_min":0,"x_max":0,"o":"m 203 222 b 297 302 218 276 249 302 b 392 277 332 302 364 294 b 553 228 454 244 507 228 b 779 415 654 228 747 293 l 642 476 b 528 392 622 420 584 392 b 425 421 493 392 458 401 b 268 468 371 452 319 468 b 53 265 169 468 82 397 l 203 222 z "}," ":{"ha":402,"x_min":0,"x_max":0,"o":""},"¡":{"ha":536,"x_min":0,"x_max":0,"o":"m 362 764 b 400 856 387 789 400 819 b 268 981 400 928 342 981 b 136 856 194 981 136 928 b 362 764 128 743 286 685 z m 167 0 l 371 0 l 371 587 l 167 587 z "},"¢":{"ha":808,"x_min":0,"x_max":0,"o":"m 621 245 b 469 174 590 197 540 174 b 352 224 425 174 385 191 b 301 355 318 257 301 300 b 351 484 301 410 317 452 b 464 532 384 516 421 532 b 624 456 531 532 589 503 l 765 576 b 532 714 712 650 634 696 l 536 929 l 378 929 l 382 714 b 77 351 225 686 77 567 b 382 -8 77 141 222 20 l 378 -222 l 536 -222 l 532 -8 b 777 151 637 9 718 62 z "},"£":{"ha":926,"x_min":0,"x_max":0,"o":"m 861 164 l 415 164 l 415 286 l 685 286 l 685 414 l 415 414 b 441 507 416 456 425 487 b 581 555 464 539 511 555 b 810 515 648 555 724 542 l 857 668 b 534 721 759 703 652 721 b 267 623 414 721 326 688 b 200 414 214 562 202 506 l 71 414 l 71 286 l 200 286 l 200 164 l 69 164 l 69 0 l 861 0 z "},"¤":{"ha":944,"x_min":0,"x_max":0,"o":"m 851 90 l 721 220 b 753 353 742 257 753 302 b 717 493 753 408 741 454 l 857 631 l 742 743 l 595 597 b 469 619 556 612 515 619 b 347 599 424 619 383 612 l 201 743 l 87 631 l 224 497 b 184 353 197 456 184 408 b 218 216 184 303 196 258 l 92 90 l 205 -24 l 340 110 b 469 86 378 94 421 86 b 602 113 522 86 566 95 l 737 -24 z m 469 467 b 576 353 534 467 576 422 b 469 240 576 284 534 240 b 363 353 404 240 363 284 b 469 467 363 423 404 467 z "},"¥":{"ha":891,"x_min":0,"x_max":0,"o":"m 762 323 l 608 323 l 864 708 l 623 708 l 443 428 l 279 708 l 28 708 l 282 323 l 121 323 l 121 186 l 332 186 l 332 0 l 554 0 l 554 186 l 762 186 z "},"¦":{"ha":459,"x_min":0,"x_max":0,"o":"m 139 576 l 321 576 l 321 1111 l 139 1111 z m 139 -222 l 321 -222 l 321 364 l 139 364 z "},"§":{"ha":844,"x_min":0,"x_max":0,"o":"m 453 412 b 272 507 312 434 272 455 b 293 571 272 531 279 552 b 390 554 325 564 357 557 b 572 460 532 534 572 511 b 551 396 572 436 566 415 b 453 412 522 403 490 408 z m 444 -14 b 753 207 597 -14 753 46 b 689 345 753 267 732 313 b 736 479 720 384 736 429 b 453 690 734 615 616 667 b 326 720 389 702 347 711 b 294 762 304 729 294 743 b 400 814 294 797 330 814 b 684 758 498 814 592 795 l 754 913 b 400 981 653 958 535 981 b 90 760 248 981 90 922 b 155 623 90 699 112 654 b 109 486 124 583 109 538 b 390 277 111 352 229 300 b 550 203 517 255 550 242 b 443 153 550 170 514 153 b 160 208 342 153 248 171 l 90 54 b 444 -14 191 9 309 -14 z "},"¨":{"ha":656,"x_min":0,"x_max":0,"o":"m 163 1026 b 41 921 95 1026 41 984 b 163 817 41 858 95 817 b 281 921 229 817 281 859 b 163 1026 281 984 230 1026 z m 497 1026 b 376 921 430 1026 376 984 b 497 817 376 858 430 817 b 615 921 564 817 615 859 b 497 1026 615 984 564 1026 z "},"©":{"ha":1352,"x_min":0,"x_max":0,"o":"m 436 902 b 119 591 286 842 180 739 b 119 113 59 441 59 260 b 676 -243 208 -104 416 -243 b 1280 351 1017 -248 1286 10 b 917 902 1280 613 1136 813 b 436 902 767 960 585 960 z m 676 803 b 1125 351 935 803 1125 612 b 676 -102 1125 91 937 -102 b 229 351 417 -102 229 92 b 676 803 226 606 420 808 z m 951 534 b 689 661 894 618 798 661 b 367 347 536 661 367 557 b 689 35 367 140 529 35 b 965 176 810 35 903 82 l 831 257 b 701 195 802 216 759 195 b 559 350 627 195 559 258 b 697 501 559 442 626 501 b 836 436 756 501 802 479 z "},"ª":{"ha":634,"x_min":0,"x_max":0,"o":"m 292 590 b 241 639 262 590 241 609 b 261 675 241 656 248 668 b 323 689 274 684 295 689 l 389 689 b 292 590 384 629 351 590 z m 555 489 l 555 751 b 540 857 555 802 556 818 b 503 911 532 876 519 894 b 313 977 462 955 399 977 b 79 935 223 977 145 962 l 117 819 b 272 850 178 840 231 850 b 368 812 323 850 355 838 b 378 774 373 802 376 789 l 323 774 b 111 728 231 774 163 765 b 57 619 75 703 57 667 b 235 479 57 525 132 479 b 399 547 303 479 358 502 l 411 489 z "},"«":{"ha":1055,"x_min":0,"x_max":0,"o":"m 993 139 l 783 346 l 989 550 l 865 673 l 536 345 l 868 14 z m 505 139 l 296 346 l 501 550 l 378 673 l 49 345 l 380 14 z "},"¬":{"ha":760,"x_min":0,"x_max":0,"o":"m 690 436 l 53 436 l 53 271 l 514 271 l 514 0 l 690 0 z "},"­":{"ha":647,"x_min":0,"x_max":0,"o":"m 590 433 l 56 433 l 56 279 l 590 279 z "},"®":{"ha":1352,"x_min":0,"x_max":0,"o":"m 436 902 b 119 591 286 842 180 739 b 119 113 59 441 59 260 b 676 -243 208 -104 416 -243 b 1280 351 1017 -248 1286 10 b 917 902 1280 613 1136 813 b 436 902 767 960 585 960 z m 676 803 b 1125 351 935 803 1125 612 b 676 -102 1125 91 937 -102 b 229 351 417 -102 229 92 b 676 803 226 606 420 808 z m 676 513 b 740 507 708 513 713 513 b 771 492 753 504 763 498 b 796 435 788 481 796 462 b 770 379 796 410 787 391 b 684 354 752 362 724 354 l 578 354 l 578 513 z m 977 66 l 828 250 b 893 283 850 257 871 268 b 970 439 944 317 970 369 b 901 586 970 500 947 549 b 795 631 871 610 838 625 b 684 637 752 637 734 637 l 412 637 l 412 66 l 578 66 l 578 233 l 661 233 l 790 66 z "},"¯":{"ha":553,"x_min":0,"x_max":0,"o":"m 41 844 l 511 844 l 511 985 l 41 985 z "},"°":{"ha":528,"x_min":0,"x_max":0,"o":"m 113 627 b 264 564 155 585 205 564 b 416 627 322 564 373 585 b 479 779 458 670 479 720 b 416 931 479 838 458 888 b 264 994 373 973 322 994 b 113 931 205 994 155 973 b 49 779 70 888 49 838 b 113 627 49 720 70 670 z m 320 723 b 264 700 304 707 286 700 b 183 779 218 700 183 734 b 264 859 183 825 218 859 b 320 723 332 859 370 772 z "},"±":{"ha":808,"x_min":0,"x_max":0,"o":"m 739 576 l 488 576 l 488 831 l 323 831 l 323 576 l 74 576 l 74 411 l 323 411 l 323 248 l 488 248 l 488 411 l 739 411 z m 736 150 l 71 150 l 71 -16 l 736 -16 z "},"²":{"ha":630,"x_min":0,"x_max":0,"o":"m 583 635 l 358 635 b 504 766 414 670 463 714 b 566 925 545 819 566 871 b 315 1129 566 1052 469 1129 b 47 981 184 1129 94 1080 l 172 909 b 298 983 200 959 242 983 b 395 901 351 983 395 955 b 283 738 395 840 346 785 b 180 670 256 716 210 686 b 77 608 150 652 102 625 l 77 489 l 583 489 z "},"³":{"ha":586,"x_min":0,"x_max":0,"o":"m 283 479 b 547 664 451 479 547 551 b 429 811 547 736 508 786 b 521 960 490 848 521 897 b 298 1129 521 1076 418 1129 b 58 1051 206 1129 126 1103 l 139 937 b 265 983 180 968 222 983 b 345 918 309 983 345 957 b 208 847 345 871 299 847 l 208 751 b 370 685 316 751 370 729 b 277 624 370 644 338 624 b 131 690 218 624 170 646 l 20 591 b 283 479 77 521 151 479 z "},"´":{"ha":459,"x_min":0,"x_max":0,"o":"m 41 889 l 110 787 l 416 983 l 338 1100 z "},"µ":{"ha":958,"x_min":0,"x_max":0,"o":"m 444 -14 b 636 98 515 -14 587 20 l 654 0 l 833 0 l 833 707 l 621 707 l 621 390 b 461 174 621 247 562 174 b 339 322 382 174 341 223 l 339 707 l 126 707 l 126 -243 l 339 -243 l 339 21 b 444 -14 366 -2 401 -14 z "},"¶":{"ha":1237,"x_min":0,"x_max":0,"o":"m 1092 937 l 578 937 b 469 928 528 937 511 937 b 411 907 448 924 429 916 b 170 753 313 885 233 834 b 74 468 106 673 74 577 b 174 180 74 357 107 261 b 422 31 240 98 323 49 b 656 0 460 10 538 0 l 656 747 l 873 747 l 873 0 l 1092 0 z "},"·":{"ha":458,"x_min":0,"x_max":0,"o":"m 136 447 b 97 355 110 422 97 392 b 229 231 97 284 155 231 b 361 355 303 231 361 284 b 136 447 369 468 210 527 z "},"¸":{"ha":336,"x_min":0,"x_max":0,"o":"m 163 29 b 41 -132 157 -41 106 -100 l 115 -262 b 294 0 229 -216 294 -125 z "},"¹":{"ha":472,"x_min":0,"x_max":0,"o":"m 379 1121 l 210 1121 l 11 932 l 107 836 l 207 932 l 207 489 l 379 489 z "},"º":{"ha":651,"x_min":0,"x_max":0,"o":"m 123 909 b 47 728 73 865 47 804 b 123 547 47 651 73 591 b 326 479 173 502 241 479 b 530 547 412 479 479 502 b 604 728 579 591 604 651 b 530 909 604 804 579 865 b 326 977 479 954 412 977 b 123 909 241 977 173 954 z m 326 833 b 425 728 386 833 425 793 b 326 624 425 665 386 624 b 227 728 264 624 227 665 b 326 833 227 793 264 833 z "},"»":{"ha":1055,"x_min":0,"x_max":0,"o":"m 519 346 l 187 676 l 62 551 l 272 345 l 66 140 l 191 17 z m 1007 346 l 675 676 l 550 551 l 760 345 l 554 140 l 677 17 z "},"¼":{"ha":1734,"x_min":0,"x_max":0,"o":"m 492 -72 l 1147 1082 l 1008 1161 l 353 7 z m 473 1121 l 304 1121 l 106 932 l 201 836 l 301 932 l 301 489 l 473 489 z m 1079 265 l 1223 510 l 1223 265 z m 1476 265 l 1388 265 l 1388 632 l 1133 632 l 892 241 l 892 135 l 1223 135 l 1223 0 l 1388 0 l 1388 135 l 1476 135 z "},"½":{"ha":1734,"x_min":0,"x_max":0,"o":"m 492 -72 l 1147 1082 l 1008 1161 l 353 7 z m 473 1121 l 304 1121 l 106 932 l 201 836 l 301 932 l 301 489 l 473 489 z m 1504 146 l 1279 146 b 1486 436 1374 207 1486 320 b 1236 640 1486 563 1390 640 b 968 493 1104 640 1015 591 l 1093 421 b 1219 494 1121 470 1163 494 b 1315 412 1272 494 1315 467 b 1204 249 1315 351 1266 296 b 1100 181 1177 227 1130 197 b 997 119 1070 163 1022 136 l 997 0 l 1504 0 z "},"¾":{"ha":1734,"x_min":0,"x_max":0,"o":"m 575 -72 l 1231 1082 l 1092 1161 l 436 7 z m 358 479 b 623 664 526 479 623 551 b 504 811 623 736 583 786 b 596 960 566 848 596 898 b 374 1129 596 1076 493 1129 b 134 1051 281 1129 201 1103 l 214 937 b 340 983 254 968 296 983 b 419 918 385 983 419 957 b 283 847 419 871 374 847 l 283 751 b 444 685 398 751 444 728 b 351 624 444 644 413 624 b 205 690 292 624 244 646 l 94 591 b 358 479 152 521 226 479 z m 1162 265 l 1307 510 l 1307 265 z m 1560 265 l 1471 265 l 1471 632 l 1217 632 l 975 241 l 975 135 l 1307 135 l 1307 0 l 1471 0 l 1471 135 l 1560 135 z "},"¿":{"ha":719,"x_min":0,"x_max":0,"o":"m 492 793 b 530 885 517 818 530 848 b 399 1010 530 957 473 1010 b 267 885 325 1010 267 957 b 492 793 258 771 417 715 z m 297 637 b 263 518 297 591 288 553 b 192 433 239 482 227 469 b 119 345 157 397 143 382 b 83 215 94 307 83 266 b 382 -12 85 75 204 -12 b 699 138 519 -12 635 54 l 567 257 b 397 170 519 199 470 170 b 294 261 338 170 294 205 b 334 347 294 296 313 322 b 387 400 345 359 376 387 b 486 637 448 461 486 526 z "},"À":{"ha":1006,"x_min":0,"x_max":0,"o":"m 260 1210 l 568 1014 l 635 1116 l 340 1326 z m 358 330 l 497 796 l 640 330 z m 975 0 l 675 937 l 334 937 l 32 0 l 261 0 l 306 150 l 697 150 l 743 0 z "},"Á":{"ha":1006,"x_min":0,"x_max":0,"o":"m 371 1116 l 439 1014 l 746 1210 l 667 1326 z m 358 330 l 497 796 l 640 330 z m 975 0 l 675 937 l 334 937 l 32 0 l 261 0 l 306 150 l 697 150 l 743 0 z "},"Â":{"ha":1006,"x_min":0,"x_max":0,"o":"m 772 1114 l 501 1305 l 231 1114 l 302 1014 l 501 1140 l 703 1013 z m 358 330 l 497 796 l 640 330 z m 975 0 l 675 937 l 334 937 l 32 0 l 261 0 l 306 150 l 697 150 l 743 0 z "},"Ã":{"ha":1006,"x_min":0,"x_max":0,"o":"m 349 1048 b 424 1116 368 1097 386 1116 b 467 1104 439 1116 456 1109 b 513 1079 478 1099 502 1084 b 607 1055 542 1063 573 1055 b 789 1210 685 1055 753 1106 l 659 1257 b 574 1190 640 1210 614 1190 b 492 1221 545 1190 517 1204 b 393 1250 460 1240 428 1250 b 216 1095 310 1250 251 1198 z m 358 330 l 497 796 l 640 330 z m 975 0 l 675 937 l 334 937 l 32 0 l 261 0 l 306 150 l 697 150 l 743 0 z "},"Ä":{"ha":1006,"x_min":0,"x_max":0,"o":"m 338 1253 b 216 1147 270 1253 216 1211 b 338 1043 216 1084 270 1043 b 456 1147 404 1043 456 1085 b 338 1253 456 1211 405 1253 z m 672 1253 b 551 1147 605 1253 551 1211 b 672 1043 551 1084 605 1043 b 790 1147 739 1043 790 1085 b 672 1253 790 1211 739 1253 z m 358 330 l 497 796 l 640 330 z m 975 0 l 675 937 l 334 937 l 32 0 l 261 0 l 306 150 l 697 150 l 743 0 z "},"Å":{"ha":1006,"x_min":0,"x_max":0,"o":"m 504 1025 b 627 1078 551 1025 591 1042 b 679 1202 661 1113 679 1154 b 627 1324 679 1249 661 1290 b 504 1377 591 1359 551 1377 b 379 1324 456 1377 414 1359 b 326 1202 344 1290 326 1249 b 379 1078 326 1154 344 1112 b 504 1025 414 1042 456 1025 z m 504 1125 b 428 1202 460 1125 428 1158 b 504 1275 428 1243 460 1275 b 578 1202 545 1275 578 1243 b 504 1125 578 1160 545 1125 z m 358 330 l 497 796 l 640 330 z m 975 0 l 675 937 l 334 937 l 32 0 l 261 0 l 306 150 l 697 150 l 743 0 z "},"Æ":{"ha":1497,"x_min":0,"x_max":0,"o":"m 425 330 l 644 791 l 644 330 z m 1430 0 l 1430 180 l 867 180 l 867 390 l 1292 390 l 1292 562 l 867 562 l 867 755 l 1414 755 l 1414 937 l 500 937 l 37 0 l 268 0 l 339 150 l 644 150 l 644 0 z "},"Ç":{"ha":998,"x_min":0,"x_max":0,"o":"m 817 293 b 576 199 762 236 674 199 b 383 271 498 199 434 223 b 307 465 332 319 307 384 b 576 737 307 630 414 737 b 810 624 675 737 753 699 l 982 753 b 576 950 895 878 745 950 b 74 465 291 950 74 756 b 195 140 74 334 115 227 b 510 -9 276 54 380 4 b 397 -132 493 -62 448 -107 l 471 -262 b 650 -9 582 -217 646 -130 b 972 155 782 9 893 68 z "},"È":{"ha":998,"x_min":0,"x_max":0,"o":"m 297 1222 l 606 1026 l 672 1128 l 378 1339 z m 932 0 l 932 180 l 368 180 l 368 390 l 793 390 l 793 562 l 368 562 l 368 755 l 916 755 l 916 937 l 146 937 l 146 0 z "},"É":{"ha":998,"x_min":0,"x_max":0,"o":"m 408 1128 l 476 1026 l 783 1222 l 704 1339 z m 932 0 l 932 180 l 368 180 l 368 390 l 793 390 l 793 562 l 368 562 l 368 755 l 916 755 l 916 937 l 146 937 l 146 0 z "},"Ê":{"ha":998,"x_min":0,"x_max":0,"o":"m 810 1126 l 539 1318 l 268 1126 l 340 1026 l 539 1153 l 741 1025 z m 932 0 l 932 180 l 368 180 l 368 390 l 793 390 l 793 562 l 368 562 l 368 755 l 916 755 l 916 937 l 146 937 l 146 0 z "},"Ë":{"ha":998,"x_min":0,"x_max":0,"o":"m 291 1236 b 291 1084 243 1198 244 1121 b 376 1055 314 1065 342 1055 b 494 1160 443 1055 494 1097 b 291 1236 502 1257 361 1297 z m 711 1265 b 590 1160 644 1265 590 1223 b 711 1055 590 1097 644 1055 b 829 1160 778 1055 829 1097 b 711 1265 829 1223 779 1265 z m 932 0 l 932 180 l 368 180 l 368 390 l 793 390 l 793 562 l 368 562 l 368 755 l 916 755 l 916 937 l 146 937 l 146 0 z "},"Ì":{"ha":513,"x_min":0,"x_max":0,"o":"m 14 1222 l 322 1026 l 389 1128 l 94 1339 z m 146 0 l 368 0 l 368 937 l 146 937 z "},"Í":{"ha":513,"x_min":0,"x_max":0,"o":"m 125 1128 l 193 1026 l 500 1222 l 421 1339 z m 146 0 l 368 0 l 368 937 l 146 937 z "},"Î":{"ha":513,"x_min":0,"x_max":0,"o":"m 525 1126 l 254 1318 l -17 1126 l 56 1026 l 254 1153 l 456 1025 z m 146 0 l 368 0 l 368 937 l 146 937 z "},"Ï":{"ha":513,"x_min":0,"x_max":0,"o":"m 6 1236 b 6 1084 -41 1198 -41 1121 b 92 1055 29 1065 58 1055 b 210 1160 158 1055 210 1097 b 6 1236 217 1257 76 1297 z m 341 1236 b 341 1084 294 1198 294 1121 b 427 1055 364 1065 393 1055 b 545 1160 493 1055 545 1097 b 341 1236 552 1257 411 1297 z m 146 0 l 368 0 l 368 937 l 146 937 z "},"Ð":{"ha":1137,"x_min":0,"x_max":0,"o":"m 575 534 l 368 534 l 368 732 l 504 732 b 586 730 540 732 567 731 b 656 716 605 729 629 724 b 732 679 684 708 709 696 b 832 472 799 629 832 561 b 725 250 832 372 796 298 b 617 210 692 229 660 215 b 500 204 574 204 555 204 l 368 204 l 368 393 l 575 393 z m 503 0 b 585 1 538 0 566 1 b 659 7 604 2 629 4 b 822 61 718 15 768 32 b 1065 472 970 140 1065 289 b 857 857 1065 642 985 778 b 674 928 800 895 742 919 b 591 936 640 932 612 935 b 501 937 570 937 541 937 l 146 937 l 146 534 l 35 534 l 35 393 l 146 393 l 146 0 z "},"Ñ":{"ha":1187,"x_min":0,"x_max":0,"o":"m 440 1061 b 515 1128 460 1109 477 1128 b 559 1117 531 1128 548 1122 b 604 1092 568 1112 594 1097 b 699 1068 633 1076 665 1068 b 880 1222 777 1068 845 1118 l 750 1270 b 665 1203 732 1223 706 1203 b 583 1234 636 1203 608 1217 b 485 1263 552 1253 519 1263 b 309 1107 401 1263 343 1211 z m 1042 0 l 1042 937 l 832 937 l 832 186 l 507 937 l 146 937 l 146 0 l 355 0 l 355 742 l 672 0 z "},"Ò":{"ha":1183,"x_min":0,"x_max":0,"o":"m 347 1222 l 656 1026 l 722 1128 l 428 1339 z m 391 916 b 74 468 205 846 74 686 b 591 -14 68 188 312 -19 b 1109 468 871 -19 1115 188 b 792 916 1109 686 979 846 b 391 916 665 963 517 963 z m 591 742 b 795 667 672 742 740 717 b 878 468 850 616 878 550 b 795 270 878 386 850 320 b 591 195 740 220 672 195 b 389 270 511 195 444 220 b 307 468 334 320 307 386 b 389 667 307 550 334 616 b 591 742 444 717 511 742 z "},"Ó":{"ha":1183,"x_min":0,"x_max":0,"o":"m 460 1128 l 528 1026 l 835 1222 l 755 1339 z m 391 916 b 74 468 205 846 74 686 b 591 -14 68 188 312 -19 b 1109 468 871 -19 1115 188 b 792 916 1109 686 979 846 b 391 916 665 963 517 963 z m 591 742 b 795 667 672 742 740 717 b 878 468 850 616 878 550 b 795 270 878 386 850 320 b 591 195 740 220 672 195 b 389 270 511 195 444 220 b 307 468 334 320 307 386 b 389 667 307 550 334 616 b 591 742 444 717 511 742 z "},"Ô":{"ha":1183,"x_min":0,"x_max":0,"o":"m 860 1126 l 589 1318 l 318 1126 l 390 1026 l 589 1153 l 790 1025 z m 391 916 b 74 468 205 846 74 686 b 591 -14 68 188 312 -19 b 1109 468 871 -19 1115 188 b 792 916 1109 686 979 846 b 391 916 665 963 517 963 z m 591 742 b 795 667 672 742 740 717 b 878 468 850 616 878 550 b 795 270 878 386 850 320 b 591 195 740 220 672 195 b 389 270 511 195 444 220 b 307 468 334 320 307 386 b 389 667 307 550 334 616 b 591 742 444 717 511 742 z "},"Õ":{"ha":1183,"x_min":0,"x_max":0,"o":"m 437 1061 b 513 1128 457 1109 475 1128 b 556 1117 528 1128 545 1122 b 602 1092 565 1112 591 1097 b 696 1068 631 1076 662 1068 b 878 1222 774 1068 842 1118 l 747 1270 b 663 1203 729 1223 703 1203 b 581 1234 633 1203 606 1217 b 482 1263 549 1253 517 1263 b 306 1107 399 1263 340 1211 z m 391 916 b 74 468 205 846 74 686 b 591 -14 68 188 312 -19 b 1109 468 871 -19 1115 188 b 792 916 1109 686 979 846 b 391 916 665 963 517 963 z m 591 742 b 795 667 672 742 740 717 b 878 468 850 616 878 550 b 795 270 878 386 850 320 b 591 195 740 220 672 195 b 389 270 511 195 444 220 b 307 468 334 320 307 386 b 389 667 307 550 334 616 b 591 742 444 717 511 742 z "},"Ö":{"ha":1183,"x_min":0,"x_max":0,"o":"m 341 1236 b 341 1084 294 1198 294 1121 b 427 1055 364 1065 393 1055 b 545 1160 493 1055 545 1097 b 341 1236 552 1257 411 1297 z m 675 1236 b 675 1084 628 1198 629 1121 b 761 1055 699 1065 727 1055 b 879 1160 827 1055 879 1097 b 675 1236 886 1257 745 1297 z m 391 916 b 74 468 205 846 74 686 b 591 -14 68 188 312 -19 b 1109 468 871 -19 1115 188 b 792 916 1109 686 979 846 b 391 916 665 963 517 963 z m 591 742 b 795 667 672 742 740 717 b 878 468 850 616 878 550 b 795 270 878 386 850 320 b 591 195 740 220 672 195 b 389 270 511 195 444 220 b 307 468 334 320 307 386 b 389 667 307 550 334 616 b 591 742 444 717 511 742 z "},"×":{"ha":720,"x_min":0,"x_max":0,"o":"m 652 171 l 472 350 l 652 529 l 541 640 l 361 461 l 180 640 l 69 530 l 250 350 l 69 170 l 180 60 l 361 239 l 541 60 z "},"Ø":{"ha":1183,"x_min":0,"x_max":0,"o":"m 591 742 b 795 667 672 742 740 717 b 878 468 850 616 878 550 b 795 270 878 386 850 320 b 591 195 740 220 672 195 b 389 270 511 195 444 220 b 307 468 334 320 307 386 b 389 667 307 550 334 616 b 591 742 444 717 511 742 z m 591 -14 b 1109 468 871 -19 1115 188 b 925 844 1109 625 1042 757 l 1021 1003 l 864 1096 l 761 926 b 591 951 709 943 652 951 b 74 468 307 951 74 755 b 257 94 74 313 142 182 l 155 -77 l 311 -171 l 419 11 b 591 -14 471 -5 528 -14 z "},"Ù":{"ha":1136,"x_min":0,"x_max":0,"o":"m 325 1222 l 633 1026 l 700 1128 l 406 1339 z m 1008 937 l 786 937 l 786 449 b 745 267 786 359 781 312 b 567 199 705 221 646 199 b 392 267 488 199 429 221 b 352 378 366 298 354 345 b 350 449 351 394 350 418 l 350 937 l 129 937 l 129 425 b 135 296 129 368 130 347 b 149 232 138 271 142 250 b 218 115 160 197 184 151 b 562 -14 298 29 412 -14 b 917 115 714 -14 838 31 b 997 264 963 164 983 216 b 1008 370 1006 293 1006 345 l 1008 427 z "},"Ú":{"ha":1136,"x_min":0,"x_max":0,"o":"m 436 1128 l 504 1026 l 811 1222 l 732 1339 z m 1008 937 l 786 937 l 786 449 b 745 267 786 359 781 312 b 567 199 705 221 646 199 b 392 267 488 199 429 221 b 352 378 366 298 354 345 b 350 449 351 394 350 418 l 350 937 l 129 937 l 129 425 b 135 296 129 368 130 347 b 149 232 138 271 142 250 b 218 115 160 197 184 151 b 562 -14 298 29 412 -14 b 917 115 714 -14 838 31 b 997 264 963 164 983 216 b 1008 370 1006 293 1006 345 l 1008 427 z "},"Û":{"ha":1136,"x_min":0,"x_max":0,"o":"m 838 1126 l 567 1318 l 296 1126 l 368 1026 l 567 1153 l 768 1025 z m 1008 937 l 786 937 l 786 449 b 745 267 786 359 781 312 b 567 199 705 221 646 199 b 392 267 488 199 429 221 b 352 378 366 298 354 345 b 350 449 351 394 350 418 l 350 937 l 129 937 l 129 425 b 135 296 129 368 130 347 b 149 232 138 271 142 250 b 218 115 160 197 184 151 b 562 -14 298 29 412 -14 b 917 115 714 -14 838 31 b 997 264 963 164 983 216 b 1008 370 1006 293 1006 345 l 1008 427 z "},"Ü":{"ha":1136,"x_min":0,"x_max":0,"o":"m 317 1236 b 317 1084 270 1198 271 1121 b 403 1055 340 1065 369 1055 b 521 1160 469 1055 521 1097 b 317 1236 528 1257 387 1297 z m 652 1236 b 652 1084 604 1198 605 1121 b 737 1055 675 1065 703 1055 b 856 1160 804 1055 856 1097 b 652 1236 863 1257 721 1298 z m 1008 937 l 786 937 l 786 449 b 745 267 786 359 781 312 b 567 199 705 221 646 199 b 392 267 488 199 429 221 b 352 378 366 298 354 345 b 350 449 351 394 350 418 l 350 937 l 129 937 l 129 425 b 135 296 129 368 130 347 b 149 232 138 271 142 250 b 218 115 160 197 184 151 b 562 -14 298 29 412 -14 b 917 115 714 -14 838 31 b 997 264 963 164 983 216 b 1008 370 1006 293 1006 345 l 1008 427 z "},"Ý":{"ha":1004,"x_min":0,"x_max":0,"o":"m 371 1128 l 439 1026 l 746 1222 l 667 1339 z m 611 307 l 994 937 l 746 937 l 500 511 l 268 937 l 11 937 l 389 309 l 389 0 l 611 0 z "},"Þ":{"ha":1137,"x_min":0,"x_max":0,"o":"m 624 614 b 726 605 669 614 688 614 b 772 585 745 600 761 593 b 832 472 812 561 832 523 b 770 347 832 413 811 371 b 677 324 746 332 703 326 b 624 323 665 323 646 323 l 368 323 l 368 614 z m 632 118 b 935 201 755 118 849 134 b 1065 472 1022 264 1065 355 b 929 741 1065 589 1020 679 b 632 819 842 804 754 819 l 368 819 l 368 937 l 146 937 l 146 0 l 368 0 l 368 118 z "},"ß":{"ha":1034,"x_min":0,"x_max":0,"o":"m 676 -14 b 961 237 816 -14 961 72 b 903 389 961 306 933 353 b 796 464 866 427 829 445 b 736 497 774 477 747 489 b 721 518 725 505 721 511 b 745 558 721 529 729 543 b 804 628 773 587 779 593 b 839 749 827 661 839 702 b 751 916 839 817 810 873 b 528 979 693 958 618 979 b 196 694 300 979 203 852 l 74 694 l 74 543 l 196 543 l 196 0 l 408 0 l 408 665 b 518 799 408 749 456 799 b 618 708 580 799 618 763 b 588 621 618 675 600 637 b 557 581 582 612 572 599 b 518 489 530 548 518 525 b 566 414 517 456 539 433 b 604 391 573 408 598 395 b 647 370 611 388 642 373 b 757 248 723 334 757 301 b 663 164 757 197 720 164 b 539 189 620 164 578 172 l 479 26 b 676 -14 528 0 593 -14 z "},"à":{"ha":909,"x_min":0,"x_max":0,"o":"m 204 990 l 513 794 l 579 896 l 285 1107 z m 404 136 b 314 215 350 136 314 164 b 349 275 314 242 326 262 b 405 294 365 287 382 292 b 448 297 425 296 422 295 l 468 297 l 576 297 b 404 136 576 197 505 136 z m 785 0 l 785 379 b 777 505 785 440 784 459 b 717 623 768 551 749 587 b 449 721 659 688 570 721 b 127 668 333 721 226 703 l 174 515 b 403 555 262 542 338 555 b 543 507 474 555 521 539 b 568 422 559 488 567 459 l 494 422 b 331 415 421 422 392 420 b 180 361 271 408 223 390 b 90 192 120 325 90 269 b 355 -14 90 43 222 -14 b 593 86 456 -14 536 20 l 612 0 z "},"á":{"ha":909,"x_min":0,"x_max":0,"o":"m 315 896 l 383 794 l 690 990 l 611 1107 z m 404 136 b 314 215 350 136 314 164 b 349 275 314 242 326 262 b 405 294 365 287 382 292 b 448 297 425 296 422 295 l 468 297 l 576 297 b 404 136 576 197 505 136 z m 785 0 l 785 379 b 777 505 785 440 784 459 b 717 623 768 551 749 587 b 449 721 659 688 570 721 b 127 668 333 721 226 703 l 174 515 b 403 555 262 542 338 555 b 543 507 474 555 521 539 b 568 422 559 488 567 459 l 494 422 b 331 415 421 422 392 420 b 180 361 271 408 223 390 b 90 192 120 325 90 269 b 355 -14 90 43 222 -14 b 593 86 456 -14 536 20 l 612 0 z "},"â":{"ha":909,"x_min":0,"x_max":0,"o":"m 715 895 l 444 1086 l 174 895 l 245 794 l 444 921 l 646 793 z m 404 136 b 314 215 350 136 314 164 b 349 275 314 242 326 262 b 405 294 365 287 382 292 b 448 297 425 296 422 295 l 468 297 l 576 297 b 404 136 576 197 505 136 z m 785 0 l 785 379 b 777 505 785 440 784 459 b 717 623 768 551 749 587 b 449 721 659 688 570 721 b 127 668 333 721 226 703 l 174 515 b 403 555 262 542 338 555 b 543 507 474 555 521 539 b 568 422 559 488 567 459 l 494 422 b 331 415 421 422 392 420 b 180 361 271 408 223 390 b 90 192 120 325 90 269 b 355 -14 90 43 222 -14 b 593 86 456 -14 536 20 l 612 0 z "},"ã":{"ha":909,"x_min":0,"x_max":0,"o":"m 293 829 b 368 896 313 878 330 896 b 412 885 384 896 401 890 b 457 860 420 880 447 865 b 551 836 486 844 517 836 b 733 990 629 836 698 886 l 603 1038 b 518 971 585 991 559 971 b 436 1002 489 971 461 985 b 338 1031 405 1021 372 1031 b 161 875 254 1031 196 979 z m 404 136 b 314 215 350 136 314 164 b 349 275 314 242 326 262 b 405 294 365 287 382 292 b 448 297 425 296 422 295 l 468 297 l 576 297 b 404 136 576 197 505 136 z m 785 0 l 785 379 b 777 505 785 440 784 459 b 717 623 768 551 749 587 b 449 721 659 688 570 721 b 127 668 333 721 226 703 l 174 515 b 403 555 262 542 338 555 b 543 507 474 555 521 539 b 568 422 559 488 567 459 l 494 422 b 331 415 421 422 392 420 b 180 361 271 408 223 390 b 90 192 120 325 90 269 b 355 -14 90 43 222 -14 b 593 86 456 -14 536 20 l 612 0 z "},"ä":{"ha":909,"x_min":0,"x_max":0,"o":"m 197 1004 b 197 852 149 966 150 889 b 282 823 220 833 248 823 b 400 928 349 823 400 865 b 197 1004 407 1024 267 1067 z m 531 1004 b 531 852 484 966 484 889 b 616 823 554 833 583 823 b 734 928 683 823 734 865 b 531 1004 741 1024 601 1067 z m 404 136 b 314 215 350 136 314 164 b 349 275 314 242 326 262 b 405 294 365 287 382 292 b 448 297 425 296 422 295 l 468 297 l 576 297 b 404 136 576 197 505 136 z m 785 0 l 785 379 b 777 505 785 440 784 459 b 717 623 768 551 749 587 b 449 721 659 688 570 721 b 127 668 333 721 226 703 l 174 515 b 403 555 262 542 338 555 b 543 507 474 555 521 539 b 568 422 559 488 567 459 l 494 422 b 331 415 421 422 392 420 b 180 361 271 408 223 390 b 90 192 120 325 90 269 b 355 -14 90 43 222 -14 b 593 86 456 -14 536 20 l 612 0 z "},"å":{"ha":909,"x_min":0,"x_max":0,"o":"m 449 806 b 572 859 496 806 536 823 b 624 982 606 893 624 935 b 572 1105 624 1029 606 1070 b 449 1157 536 1139 496 1157 b 324 1105 401 1157 359 1139 b 271 982 288 1070 271 1029 b 324 859 271 935 288 893 b 449 806 359 823 401 806 z m 449 905 b 372 982 405 905 372 939 b 449 1055 372 1023 405 1055 b 522 982 490 1055 522 1023 b 449 905 522 940 491 905 z m 404 136 b 314 215 350 136 314 164 b 349 275 314 242 326 262 b 405 294 365 287 382 292 b 448 297 425 296 422 295 l 468 297 l 576 297 b 404 136 576 197 505 136 z m 785 0 l 785 379 b 777 505 785 440 784 459 b 717 623 768 551 749 587 b 449 721 659 688 570 721 b 127 668 333 721 226 703 l 174 515 b 403 555 262 542 338 555 b 543 507 474 555 521 539 b 568 422 559 488 567 459 l 494 422 b 331 415 421 422 392 420 b 180 361 271 408 223 390 b 90 192 120 325 90 269 b 355 -14 90 43 222 -14 b 593 86 456 -14 536 20 l 612 0 z "},"æ":{"ha":1407,"x_min":0,"x_max":0,"o":"m 799 415 b 970 566 813 515 870 566 b 1122 415 1061 566 1124 509 z m 404 136 b 314 215 350 136 314 164 b 351 273 314 237 326 257 b 478 297 392 297 429 298 l 576 297 b 404 136 576 197 505 136 z m 1235 183 b 1035 142 1168 155 1102 142 b 800 290 890 142 822 184 l 1328 290 b 1336 412 1334 334 1337 374 b 971 721 1333 623 1147 721 b 710 623 870 721 777 687 b 449 721 651 688 564 721 b 127 668 333 721 226 703 l 174 515 b 403 555 262 542 338 555 b 543 507 474 555 521 539 b 568 422 559 489 567 461 l 476 422 b 322 414 405 422 378 422 b 180 359 266 407 223 389 b 90 192 120 322 90 267 b 366 -14 90 43 222 -12 b 672 118 495 -14 608 33 b 996 -14 742 28 857 -14 b 1289 45 1113 -14 1211 6 z "},"ç":{"ha":808,"x_min":0,"x_max":0,"o":"m 621 245 b 469 174 590 197 540 174 b 352 224 425 174 385 191 b 301 355 318 257 301 300 b 351 484 301 410 317 452 b 464 532 384 516 421 532 b 624 456 531 532 589 503 l 765 576 b 454 721 699 670 583 721 b 77 351 275 721 77 600 b 386 -8 77 139 224 19 b 272 -132 369 -62 324 -107 l 346 -262 b 525 -8 457 -217 522 -130 b 777 151 633 7 717 60 z "},"è":{"ha":908,"x_min":0,"x_max":0,"o":"m 228 990 l 536 794 l 603 896 l 309 1107 z m 300 415 b 471 566 314 515 371 566 b 624 415 562 566 626 509 z m 736 183 b 538 142 669 155 604 142 b 301 290 393 142 323 184 l 829 290 b 839 412 836 332 839 373 b 472 721 834 623 648 721 b 77 350 267 721 77 599 b 497 -14 77 90 268 -14 b 790 45 614 -14 711 6 z "},"é":{"ha":908,"x_min":0,"x_max":0,"o":"m 339 896 l 407 794 l 714 990 l 635 1107 z m 300 415 b 471 566 314 515 371 566 b 624 415 562 566 626 509 z m 736 183 b 538 142 669 155 604 142 b 301 290 393 142 323 184 l 829 290 b 839 412 836 332 839 373 b 472 721 834 623 648 721 b 77 350 267 721 77 599 b 497 -14 77 90 268 -14 b 790 45 614 -14 711 6 z "},"ê":{"ha":908,"x_min":0,"x_max":0,"o":"m 739 895 l 468 1086 l 197 895 l 269 794 l 468 921 l 669 793 z m 300 415 b 471 566 314 515 371 566 b 624 415 562 566 626 509 z m 736 183 b 538 142 669 155 604 142 b 301 290 393 142 323 184 l 829 290 b 839 412 836 332 839 373 b 472 721 834 623 648 721 b 77 350 267 721 77 599 b 497 -14 77 90 268 -14 b 790 45 614 -14 711 6 z "},"ë":{"ha":908,"x_min":0,"x_max":0,"o":"m 306 1034 b 184 928 238 1034 184 991 b 306 823 184 865 238 823 b 424 928 372 823 424 865 b 306 1034 424 991 373 1034 z m 555 1004 b 555 852 507 966 508 889 b 640 823 578 833 606 823 b 758 928 707 823 758 865 b 555 1004 765 1024 625 1067 z m 300 415 b 471 566 314 515 371 566 b 624 415 562 566 626 509 z m 736 183 b 538 142 669 155 604 142 b 301 290 393 142 323 184 l 829 290 b 839 412 836 332 839 373 b 472 721 834 623 648 721 b 77 350 267 721 77 599 b 497 -14 77 90 268 -14 b 790 45 614 -14 711 6 z "},"ì":{"ha":464,"x_min":0,"x_max":0,"o":"m -11 990 l 297 794 l 364 896 l 69 1107 z m 125 0 l 339 0 l 339 707 l 125 707 z "},"í":{"ha":464,"x_min":0,"x_max":0,"o":"m 102 896 l 170 794 l 476 990 l 397 1107 z m 125 0 l 339 0 l 339 707 l 125 707 z "},"î":{"ha":464,"x_min":0,"x_max":0,"o":"m 501 895 l 231 1086 l -40 895 l 32 794 l 231 921 l 432 793 z m 125 0 l 339 0 l 339 707 l 125 707 z "},"ï":{"ha":464,"x_min":0,"x_max":0,"o":"m -18 1004 b -18 852 -65 966 -64 890 b 68 823 5 833 34 823 b 186 928 134 823 186 865 b -18 1004 193 1024 52 1067 z m 317 1004 b 317 852 270 966 271 889 b 403 823 340 833 369 823 b 521 928 469 823 521 865 b 317 1004 528 1024 387 1067 z m 125 0 l 339 0 l 339 707 l 125 707 z "},"ð":{"ha":932,"x_min":0,"x_max":0,"o":"m 463 -14 b 854 425 712 -14 854 138 b 693 829 854 574 793 715 l 761 896 l 643 1015 l 568 940 b 484 989 543 958 514 975 l 379 848 b 439 812 389 842 410 831 l 374 747 l 490 628 l 562 700 b 644 513 607 642 634 580 b 390 604 582 572 506 604 b 77 315 229 604 77 508 b 184 75 77 213 113 132 b 463 -14 256 17 349 -13 z m 627 302 b 456 171 627 223 556 171 b 298 307 363 171 298 222 b 463 437 298 392 370 437 b 627 302 562 435 627 391 z "},"ñ":{"ha":970,"x_min":0,"x_max":0,"o":"m 332 829 b 407 896 351 878 369 896 b 450 885 422 896 439 890 b 496 860 459 880 486 865 b 590 836 525 844 556 836 b 772 990 668 836 737 886 l 642 1038 b 557 971 623 991 597 971 b 475 1002 528 971 500 985 b 376 1031 444 1021 411 1031 b 200 875 293 1031 235 979 z m 505 532 b 604 494 549 532 582 519 b 633 382 633 458 633 430 l 633 0 l 846 0 l 846 419 b 839 528 846 469 846 487 b 789 633 833 569 816 602 b 567 721 741 692 667 721 b 323 603 459 721 378 682 l 304 707 l 125 707 l 125 0 l 339 0 l 339 351 b 505 532 348 471 411 532 z "},"ò":{"ha":936,"x_min":0,"x_max":0,"o":"m 225 990 l 533 794 l 600 896 l 306 1107 z m 469 721 b 184 620 351 721 256 687 b 77 353 113 553 77 463 b 184 87 77 242 113 154 b 469 -14 256 20 351 -14 b 753 87 587 -14 682 20 b 860 353 824 154 860 242 b 753 620 860 463 824 553 b 469 721 681 687 587 721 z m 469 534 b 639 353 572 534 639 465 b 469 172 639 241 572 172 b 298 353 364 172 298 241 b 469 534 298 465 364 534 z "},"ó":{"ha":936,"x_min":0,"x_max":0,"o":"m 336 896 l 404 794 l 711 990 l 632 1107 z m 469 721 b 184 620 351 721 256 687 b 77 353 113 553 77 463 b 184 87 77 242 113 154 b 469 -14 256 20 351 -14 b 753 87 587 -14 682 20 b 860 353 824 154 860 242 b 753 620 860 463 824 553 b 469 721 681 687 587 721 z m 469 534 b 639 353 572 534 639 465 b 469 172 639 241 572 172 b 298 353 364 172 298 241 b 469 534 298 465 364 534 z "},"ô":{"ha":936,"x_min":0,"x_max":0,"o":"m 736 895 l 465 1086 l 195 895 l 267 794 l 465 921 l 667 793 z m 469 721 b 184 620 351 721 256 687 b 77 353 113 553 77 463 b 184 87 77 242 113 154 b 469 -14 256 20 351 -14 b 753 87 587 -14 682 20 b 860 353 824 154 860 242 b 753 620 860 463 824 553 b 469 721 681 687 587 721 z m 469 534 b 639 353 572 534 639 465 b 469 172 639 241 572 172 b 298 353 364 172 298 241 b 469 534 298 465 364 534 z "},"õ":{"ha":936,"x_min":0,"x_max":0,"o":"m 314 829 b 389 896 334 878 351 896 b 433 885 404 896 422 890 l 478 860 b 572 836 507 844 538 836 b 754 990 650 836 719 886 l 624 1038 b 539 971 606 991 580 971 b 457 1002 510 971 482 985 b 358 1031 426 1021 393 1031 b 182 875 275 1031 216 979 z m 469 721 b 184 620 351 721 256 687 b 77 353 113 553 77 463 b 184 87 77 242 113 154 b 469 -14 256 20 351 -14 b 753 87 587 -14 682 20 b 860 353 824 154 860 242 b 753 620 860 463 824 553 b 469 721 681 687 587 721 z m 469 534 b 639 353 572 534 639 465 b 469 172 639 241 572 172 b 298 353 364 172 298 241 b 469 534 298 465 364 534 z "},"ö":{"ha":936,"x_min":0,"x_max":0,"o":"m 217 1004 b 217 852 170 966 170 889 b 302 823 240 833 269 823 b 421 928 369 823 421 865 b 217 1004 429 1025 286 1067 z m 552 1004 b 552 852 505 966 505 889 b 637 823 575 833 604 823 b 755 928 704 823 755 865 b 552 1004 762 1024 622 1067 z m 469 721 b 184 620 351 721 256 687 b 77 353 113 553 77 463 b 184 87 77 242 113 154 b 469 -14 256 20 351 -14 b 753 87 587 -14 682 20 b 860 353 824 154 860 242 b 753 620 860 463 824 553 b 469 721 681 687 587 721 z m 469 534 b 639 353 572 534 639 465 b 469 172 639 241 572 172 b 298 353 364 172 298 241 b 469 534 298 465 364 534 z "},"÷":{"ha":805,"x_min":0,"x_max":0,"o":"m 404 743 b 281 624 336 743 281 691 b 404 504 281 555 336 504 b 529 624 474 504 529 555 b 404 743 529 692 474 743 z m 736 429 l 71 429 l 71 264 l 736 264 z m 404 200 b 281 79 336 200 281 148 b 404 -39 281 12 336 -39 b 529 79 474 -39 529 12 b 404 200 529 148 474 200 z "},"ø":{"ha":936,"x_min":0,"x_max":0,"o":"m 469 534 b 639 353 572 534 639 465 b 469 172 639 241 572 172 b 298 353 364 172 298 241 b 469 534 298 465 364 534 z m 469 -14 b 753 87 587 -14 682 20 b 860 353 824 154 860 242 b 742 629 860 469 821 562 l 833 785 l 676 876 l 579 710 b 469 721 542 718 505 721 b 184 620 351 721 256 687 b 77 353 113 553 77 463 b 205 69 77 233 121 134 l 118 -81 l 275 -172 l 372 -5 b 469 -14 403 -11 435 -14 z "},"ù":{"ha":958,"x_min":0,"x_max":0,"o":"m 235 990 l 543 794 l 610 896 l 315 1107 z m 833 0 l 833 707 l 621 707 l 621 390 b 461 174 621 247 562 174 b 368 210 420 175 389 187 b 338 322 338 245 338 271 l 338 707 l 125 707 l 125 285 b 134 171 127 231 127 214 b 193 61 142 128 161 96 b 401 -14 240 12 310 -14 b 635 103 507 -14 584 25 l 654 0 z "},"ú":{"ha":958,"x_min":0,"x_max":0,"o":"m 346 896 l 414 794 l 721 990 l 642 1107 z m 833 0 l 833 707 l 621 707 l 621 390 b 461 174 621 247 562 174 b 368 210 420 175 389 187 b 338 322 338 245 338 271 l 338 707 l 125 707 l 125 285 b 134 171 127 231 127 214 b 193 61 142 128 161 96 b 401 -14 240 12 310 -14 b 635 103 507 -14 584 25 l 654 0 z "},"û":{"ha":958,"x_min":0,"x_max":0,"o":"m 747 895 l 476 1086 l 205 895 l 278 794 l 476 921 l 677 793 z m 833 0 l 833 707 l 621 707 l 621 390 b 461 174 621 247 562 174 b 368 210 420 175 389 187 b 338 322 338 245 338 271 l 338 707 l 125 707 l 125 285 b 134 171 127 231 127 214 b 193 61 142 128 161 96 b 401 -14 240 12 310 -14 b 635 103 507 -14 584 25 l 654 0 z "},"ü":{"ha":958,"x_min":0,"x_max":0,"o":"m 229 1004 b 229 852 181 966 182 889 b 314 823 252 833 280 823 b 432 928 380 823 432 865 b 229 1004 439 1024 298 1067 z m 563 1004 b 563 852 515 966 516 889 b 648 823 586 833 614 823 b 766 928 715 823 766 865 b 563 1004 773 1024 633 1067 z m 833 0 l 833 707 l 621 707 l 621 390 b 461 174 621 247 562 174 b 368 210 420 175 389 187 b 338 322 338 245 338 271 l 338 707 l 125 707 l 125 285 b 134 171 127 231 127 214 b 193 61 142 128 161 96 b 401 -14 240 12 310 -14 b 635 103 507 -14 584 25 l 654 0 z "},"ý":{"ha":817,"x_min":0,"x_max":0,"o":"m 275 896 l 343 794 l 650 990 l 571 1107 z m 791 707 l 578 707 l 418 215 l 253 707 l 25 707 l 296 -9 l 229 -179 l 422 -261 z "},"þ":{"ha":962,"x_min":0,"x_max":0,"o":"m 485 160 b 339 204 429 160 380 175 l 339 319 b 500 532 339 457 409 532 b 663 355 597 532 663 469 b 485 160 663 233 591 160 z m 530 -14 b 787 92 636 -13 722 22 b 885 372 852 160 885 254 b 798 625 885 477 856 562 b 574 721 739 689 664 721 b 339 610 474 721 395 684 l 339 965 l 126 965 l 126 -243 l 339 -243 l 339 37 b 530 -14 397 5 460 -12 z "},"ÿ":{"ha":817,"x_min":0,"x_max":0,"o":"m 156 1004 b 156 852 109 966 109 889 b 241 823 179 833 208 823 b 359 928 308 823 359 865 b 156 1004 366 1024 226 1067 z m 491 1004 b 491 852 444 966 444 889 b 576 823 514 833 543 823 b 694 928 643 823 694 865 b 491 1004 701 1024 561 1067 z m 791 707 l 578 707 l 418 215 l 253 707 l 25 707 l 296 -9 l 229 -179 l 422 -261 z "},"Ā":{"ha":1006,"x_min":0,"x_max":0,"o":"m 268 1071 l 737 1071 l 737 1211 l 268 1211 z m 358 330 l 497 796 l 640 330 z m 975 0 l 675 937 l 334 937 l 32 0 l 261 0 l 306 150 l 697 150 l 743 0 z "},"ā":{"ha":909,"x_min":0,"x_max":0,"o":"m 212 851 l 682 851 l 682 991 l 212 991 z m 404 136 b 314 215 350 136 314 164 b 349 275 314 242 326 262 b 405 294 365 287 382 292 b 448 297 425 296 422 295 l 468 297 l 576 297 b 404 136 576 197 505 136 z m 785 0 l 785 379 b 777 505 785 440 784 459 b 717 623 768 551 749 587 b 449 721 659 688 570 721 b 127 668 333 721 226 703 l 174 515 b 403 555 262 542 338 555 b 543 507 474 555 521 539 b 568 422 559 488 567 459 l 494 422 b 331 415 421 422 392 420 b 180 361 271 408 223 390 b 90 192 120 325 90 269 b 355 -14 90 43 222 -14 b 593 86 456 -14 536 20 l 612 0 z "},"Ă":{"ha":1006,"x_min":0,"x_max":0,"o":"m 273 1260 b 503 1039 273 1126 363 1039 b 730 1260 643 1039 730 1124 l 599 1260 b 501 1165 599 1205 557 1165 b 407 1260 446 1165 407 1204 z m 358 330 l 497 796 l 640 330 z m 975 0 l 675 937 l 334 937 l 32 0 l 261 0 l 306 150 l 697 150 l 743 0 z "},"ă":{"ha":909,"x_min":0,"x_max":0,"o":"m 218 1040 b 447 819 218 906 307 819 b 675 1040 587 819 675 905 l 543 1040 b 446 946 543 985 502 946 b 351 1040 391 946 351 984 z m 404 136 b 314 215 350 136 314 164 b 349 275 314 242 326 262 b 405 294 365 287 382 292 b 448 297 425 296 422 295 l 468 297 l 576 297 b 404 136 576 197 505 136 z m 785 0 l 785 379 b 777 505 785 440 784 459 b 717 623 768 551 749 587 b 449 721 659 688 570 721 b 127 668 333 721 226 703 l 174 515 b 403 555 262 542 338 555 b 543 507 474 555 521 539 b 568 422 559 488 567 459 l 494 422 b 331 415 421 422 392 420 b 180 361 271 408 223 390 b 90 192 120 325 90 269 b 355 -14 90 43 222 -14 b 593 86 456 -14 536 20 l 612 0 z "},"Ą":{"ha":1006,"x_min":0,"x_max":0,"o":"m 358 330 l 497 796 l 640 330 z m 981 -216 b 909 -109 933 -183 909 -147 b 975 0 909 -68 931 -33 l 675 937 l 334 937 l 32 0 l 261 0 l 306 150 l 697 150 l 743 0 l 815 0 b 768 -142 782 -41 766 -88 b 878 -325 770 -206 808 -273 z "},"ą":{"ha":909,"x_min":0,"x_max":0,"o":"m 404 136 b 314 215 350 136 314 164 b 349 275 314 242 326 262 b 405 294 365 287 382 292 b 448 297 425 296 422 295 l 468 297 l 576 297 b 404 136 576 197 505 136 z m 790 -216 b 720 -109 743 -183 720 -147 b 785 0 720 -68 741 -32 l 785 379 b 777 505 785 440 784 459 b 717 623 768 551 749 587 b 449 721 659 688 570 721 b 127 668 333 721 226 703 l 174 515 b 403 555 262 542 338 555 b 543 507 474 555 521 539 b 568 422 559 488 567 459 l 494 422 b 331 415 421 422 392 420 b 180 361 271 408 223 390 b 90 192 120 325 90 269 b 355 -14 90 43 222 -14 b 593 86 456 -14 536 20 l 612 0 l 625 0 b 578 -142 592 -41 576 -89 b 688 -325 580 -206 617 -273 z "},"Ć":{"ha":998,"x_min":0,"x_max":0,"o":"m 435 1128 l 503 1026 l 810 1222 l 730 1339 z m 982 753 b 576 950 895 878 745 950 b 74 465 291 950 74 756 b 576 -14 74 180 286 -14 b 972 155 739 -14 880 54 l 817 293 b 576 199 762 236 674 199 b 383 271 498 199 434 223 b 307 465 332 319 307 384 b 576 737 307 630 414 737 b 810 624 675 737 753 699 z "},"ć":{"ha":808,"x_min":0,"x_max":0,"o":"m 319 896 l 387 794 l 694 990 l 615 1107 z m 765 576 b 454 721 699 670 583 721 b 77 351 275 721 77 600 b 453 -14 77 111 269 -14 b 777 151 597 -14 705 41 l 621 245 b 469 174 590 197 540 174 b 352 224 425 174 385 191 b 301 355 318 257 301 300 b 351 484 301 410 317 452 b 464 532 384 516 421 532 b 624 456 531 532 589 503 z "},"Ĉ":{"ha":998,"x_min":0,"x_max":0,"o":"m 836 1126 l 566 1318 l 294 1126 l 367 1026 l 566 1153 l 766 1025 z m 982 753 b 576 950 895 878 745 950 b 74 465 291 950 74 756 b 576 -14 74 180 286 -14 b 972 155 739 -14 880 54 l 817 293 b 576 199 762 236 674 199 b 383 271 498 199 434 223 b 307 465 332 319 307 384 b 576 737 307 630 414 737 b 810 624 675 737 753 699 z "},"ĉ":{"ha":808,"x_min":0,"x_max":0,"o":"m 720 895 l 449 1086 l 178 895 l 250 794 l 449 921 l 650 793 z m 765 576 b 454 721 699 670 583 721 b 77 351 275 721 77 600 b 453 -14 77 111 269 -14 b 777 151 597 -14 705 41 l 621 245 b 469 174 590 197 540 174 b 352 224 425 174 385 191 b 301 355 318 257 301 300 b 351 484 301 410 317 452 b 464 532 384 516 421 532 b 624 456 531 532 589 503 z "},"Ċ":{"ha":998,"x_min":0,"x_max":0,"o":"m 481 1236 b 447 1160 458 1216 447 1190 b 567 1055 447 1100 500 1055 b 685 1160 635 1055 685 1100 b 481 1236 694 1255 551 1299 z m 982 753 b 576 950 895 878 745 950 b 74 465 291 950 74 756 b 576 -14 74 180 286 -14 b 972 155 739 -14 880 54 l 817 293 b 576 199 762 236 674 199 b 383 271 498 199 434 223 b 307 465 332 319 307 384 b 576 737 307 630 414 737 b 810 624 675 737 753 699 z "},"ċ":{"ha":808,"x_min":0,"x_max":0,"o":"m 365 1004 b 330 928 342 984 330 958 b 450 823 330 868 383 823 b 568 928 518 823 568 868 b 365 1004 577 1023 434 1067 z m 765 576 b 454 721 699 670 583 721 b 77 351 275 721 77 600 b 453 -14 77 111 269 -14 b 777 151 597 -14 705 41 l 621 245 b 469 174 590 197 540 174 b 352 224 425 174 385 191 b 301 355 318 257 301 300 b 351 484 301 410 317 452 b 464 532 384 516 421 532 b 624 456 531 532 589 503 z "},"Č":{"ha":998,"x_min":0,"x_max":0,"o":"m 846 1217 l 774 1317 l 575 1190 l 374 1318 l 304 1217 l 575 1025 z m 982 753 b 576 950 895 878 745 950 b 74 465 291 950 74 756 b 576 -14 74 180 286 -14 b 972 155 739 -14 880 54 l 817 293 b 576 199 762 236 674 199 b 383 271 498 199 434 223 b 307 465 332 319 307 384 b 576 737 307 630 414 737 b 810 624 675 737 753 699 z "},"č":{"ha":808,"x_min":0,"x_max":0,"o":"m 730 985 l 659 1084 l 460 958 l 258 1086 l 189 985 l 460 793 z m 765 576 b 454 721 699 670 583 721 b 77 351 275 721 77 600 b 453 -14 77 111 269 -14 b 777 151 597 -14 705 41 l 621 245 b 469 174 590 197 540 174 b 352 224 425 174 385 191 b 301 355 318 257 301 300 b 351 484 301 410 317 452 b 464 532 384 516 421 532 b 624 456 531 532 589 503 z "},"Ď":{"ha":1137,"x_min":0,"x_max":0,"o":"m 814 1217 l 742 1317 l 543 1190 l 342 1318 l 272 1217 l 543 1025 z m 504 732 b 586 730 540 732 567 731 b 656 716 605 729 629 724 b 732 679 684 708 709 696 b 832 472 799 629 832 561 b 725 250 832 372 796 298 b 617 210 692 229 660 215 b 500 204 574 204 555 204 l 368 204 l 368 732 z m 503 0 b 585 1 538 0 566 1 b 659 7 604 2 629 4 b 822 61 718 15 768 32 b 1065 472 970 140 1065 289 b 857 857 1065 642 985 778 b 674 928 800 895 742 919 b 591 936 640 932 612 935 b 501 937 570 937 541 937 l 146 937 l 146 0 z "},"ď":{"ha":962,"x_min":0,"x_max":0,"o":"m 463 168 b 298 351 367 168 298 235 b 478 549 298 473 373 549 b 624 497 534 549 583 532 l 624 390 b 463 168 624 249 564 168 z m 836 0 l 836 965 l 624 965 l 624 672 b 431 721 566 703 501 720 b 174 614 324 720 239 684 b 77 335 109 544 77 451 b 167 84 77 233 106 149 b 397 -14 227 19 304 -14 b 633 110 496 -14 578 28 l 659 0 z m 490 -406 b 566 -167 547 -270 566 -211 b 465 -62 566 -107 522 -62 b 366 -160 413 -62 366 -109 b 447 -257 366 -214 396 -252 b 406 -372 437 -289 424 -328 z "},"Đ":{"ha":1137,"x_min":0,"x_max":0,"o":"m 575 534 l 368 534 l 368 732 l 504 732 b 586 730 540 732 567 731 b 656 716 605 729 629 724 b 732 679 684 708 709 696 b 832 472 799 629 832 561 b 725 250 832 372 796 298 b 617 210 692 229 660 215 b 500 204 574 204 555 204 l 368 204 l 368 393 l 575 393 z m 503 0 b 585 1 538 0 566 1 b 659 7 604 2 629 4 b 822 61 718 15 768 32 b 1065 472 970 140 1065 289 b 857 857 1065 642 985 778 b 674 928 800 895 742 919 b 591 936 640 932 612 935 b 501 937 570 937 541 937 l 146 937 l 146 534 l 35 534 l 35 393 l 146 393 l 146 0 z "},"đ":{"ha":962,"x_min":0,"x_max":0,"o":"m 463 168 b 298 351 367 168 298 235 b 478 549 298 473 373 549 b 624 497 534 549 583 532 l 624 390 b 463 168 624 249 564 168 z m 836 0 l 836 768 l 972 768 l 972 907 l 836 907 l 836 965 l 624 965 l 624 907 l 454 907 l 454 768 l 624 768 l 624 672 b 431 721 566 703 501 720 b 174 614 324 720 239 684 b 77 335 109 544 77 451 b 167 84 77 233 106 149 b 397 -14 227 19 304 -14 b 633 110 496 -14 578 28 l 659 0 z "},"Ē":{"ha":998,"x_min":0,"x_max":0,"o":"m 306 1083 l 775 1083 l 775 1223 l 306 1223 z m 932 0 l 932 180 l 368 180 l 368 390 l 793 390 l 793 562 l 368 562 l 368 755 l 916 755 l 916 937 l 146 937 l 146 0 z "},"ē":{"ha":908,"x_min":0,"x_max":0,"o":"m 236 851 l 705 851 l 705 991 l 236 991 z m 300 415 b 471 566 314 515 371 566 b 624 415 562 566 626 509 z m 736 183 b 538 142 669 155 604 142 b 301 290 393 142 323 184 l 829 290 b 839 412 836 332 839 373 b 472 721 834 623 648 721 b 77 350 267 721 77 599 b 497 -14 77 90 268 -14 b 790 45 614 -14 711 6 z "},"Ė":{"ha":998,"x_min":0,"x_max":0,"o":"m 456 1236 b 421 1160 433 1216 421 1190 b 541 1055 421 1100 473 1055 b 659 1160 608 1055 659 1100 b 456 1236 667 1255 524 1299 z m 932 0 l 932 180 l 368 180 l 368 390 l 793 390 l 793 562 l 368 562 l 368 755 l 916 755 l 916 937 l 146 937 l 146 0 z "},"ė":{"ha":908,"x_min":0,"x_max":0,"o":"m 386 1004 b 351 928 363 984 351 958 b 471 823 351 868 404 823 b 589 928 538 823 589 868 b 386 1004 597 1023 454 1067 z m 300 415 b 471 566 314 515 371 566 b 624 415 562 566 626 509 z m 736 183 b 538 142 669 155 604 142 b 301 290 393 142 323 184 l 829 290 b 839 412 836 332 839 373 b 472 721 834 623 648 721 b 77 350 267 721 77 599 b 497 -14 77 90 268 -14 b 790 45 614 -14 711 6 z "},"Ę":{"ha":998,"x_min":0,"x_max":0,"o":"m 939 -216 b 868 -109 892 -183 868 -147 b 933 0 868 -68 890 -32 l 932 1 l 932 180 l 368 180 l 368 390 l 793 390 l 793 562 l 368 562 l 368 755 l 916 755 l 916 937 l 146 937 l 146 0 l 774 0 b 726 -142 741 -41 724 -89 b 836 -325 728 -206 766 -273 l 939 -216 z "},"ę":{"ha":908,"x_min":0,"x_max":0,"o":"m 300 415 b 471 566 314 515 371 566 b 624 415 562 566 626 509 z m 798 -172 b 726 -64 750 -139 726 -102 b 791 45 726 -24 748 13 l 790 46 l 736 183 b 538 142 669 155 604 142 b 301 290 393 142 323 184 l 829 290 b 839 412 836 332 839 373 b 472 721 834 623 648 721 b 77 350 267 721 77 599 b 497 -14 77 90 268 -14 b 602 -8 536 -14 571 -12 b 585 -97 590 -36 585 -65 b 694 -281 587 -161 625 -229 z "},"Ě":{"ha":998,"x_min":0,"x_max":0,"o":"m 819 1217 l 747 1317 l 549 1190 l 347 1318 l 278 1217 l 549 1025 z m 932 0 l 932 180 l 368 180 l 368 390 l 793 390 l 793 562 l 368 562 l 368 755 l 916 755 l 916 937 l 146 937 l 146 0 z "},"ě":{"ha":908,"x_min":0,"x_max":0,"o":"m 750 985 l 677 1084 l 479 958 l 278 1086 l 208 985 l 479 793 z m 300 415 b 471 566 314 515 371 566 b 624 415 562 566 626 509 z m 736 183 b 538 142 669 155 604 142 b 301 290 393 142 323 184 l 829 290 b 839 412 836 332 839 373 b 472 721 834 623 648 721 b 77 350 267 721 77 599 b 497 -14 77 90 268 -14 b 790 45 614 -14 711 6 z "},"Ĝ":{"ha":1101,"x_min":0,"x_max":0,"o":"m 861 1126 l 590 1318 l 319 1126 l 392 1026 l 590 1153 l 791 1025 z m 1022 532 l 551 532 l 551 367 l 814 367 l 814 256 b 618 192 771 213 706 192 b 392 269 522 192 447 218 b 309 468 336 321 309 387 b 590 737 309 639 441 737 b 832 639 690 737 770 705 l 986 779 b 583 951 899 894 765 951 b 74 468 325 951 74 777 b 593 -14 68 191 286 -17 b 1022 187 770 -14 935 58 z "},"ĝ":{"ha":964,"x_min":0,"x_max":0,"o":"m 728 895 l 457 1086 l 186 895 l 258 794 l 457 921 l 659 793 z m 463 237 b 298 393 367 237 298 295 b 478 555 298 492 372 555 b 624 498 532 555 580 536 l 624 390 b 463 237 624 294 564 237 z m 447 -253 b 791 -90 621 -253 735 -199 b 838 71 822 -39 834 30 b 839 165 838 92 839 124 l 839 707 l 657 707 l 647 657 b 431 721 585 699 513 720 b 174 625 324 720 239 688 b 77 376 109 562 77 479 b 167 155 77 286 106 212 b 397 69 227 98 304 69 b 643 180 505 69 587 106 l 643 102 b 444 -89 643 -25 568 -89 b 184 -22 355 -89 251 -60 l 111 -174 b 447 -253 200 -222 319 -253 z "},"Ğ":{"ha":1101,"x_min":0,"x_max":0,"o":"m 363 1272 b 591 1051 363 1138 452 1051 b 819 1272 732 1051 819 1137 l 688 1272 b 590 1178 688 1217 646 1178 b 496 1272 535 1178 496 1216 z m 1022 532 l 551 532 l 551 367 l 814 367 l 814 256 b 618 192 771 213 706 192 b 392 269 522 192 447 218 b 309 468 336 321 309 387 b 590 737 309 639 441 737 b 832 639 690 737 770 705 l 986 779 b 583 951 899 894 765 951 b 74 468 325 951 74 777 b 593 -14 68 191 286 -17 b 1022 187 770 -14 935 58 z "},"ğ":{"ha":964,"x_min":0,"x_max":0,"o":"m 231 1040 b 460 819 231 906 321 819 b 688 1040 600 819 688 905 l 555 1040 b 458 946 555 985 514 946 b 364 1040 404 946 364 984 z m 463 237 b 298 393 367 237 298 295 b 478 555 298 492 372 555 b 624 498 532 555 580 536 l 624 390 b 463 237 624 294 564 237 z m 447 -253 b 791 -90 621 -253 735 -199 b 838 71 822 -39 834 30 b 839 165 838 92 839 124 l 839 707 l 657 707 l 647 657 b 431 721 585 699 513 720 b 174 625 324 720 239 688 b 77 376 109 562 77 479 b 167 155 77 286 106 212 b 397 69 227 98 304 69 b 643 180 505 69 587 106 l 643 102 b 444 -89 643 -25 568 -89 b 184 -22 355 -89 251 -60 l 111 -174 b 447 -253 200 -222 319 -253 z "},"Ġ":{"ha":1101,"x_min":0,"x_max":0,"o":"m 591 1265 b 472 1160 524 1265 472 1221 b 591 1055 472 1100 524 1055 b 710 1160 659 1055 710 1100 b 591 1265 710 1221 660 1265 z m 1022 532 l 551 532 l 551 367 l 814 367 l 814 256 b 618 192 771 213 706 192 b 392 269 522 192 447 218 b 309 468 336 321 309 387 b 590 737 309 639 441 737 b 832 639 690 737 770 705 l 986 779 b 583 951 899 894 765 951 b 74 468 325 951 74 777 b 593 -14 68 191 286 -17 b 1022 187 770 -14 935 58 z "},"ġ":{"ha":964,"x_min":0,"x_max":0,"o":"m 374 1004 b 339 928 351 984 339 958 b 458 823 339 868 391 823 b 576 928 526 823 576 868 b 374 1004 585 1023 441 1067 z m 463 237 b 298 393 367 237 298 295 b 478 555 298 492 372 555 b 624 498 532 555 580 536 l 624 390 b 463 237 624 294 564 237 z m 447 -253 b 791 -90 621 -253 735 -199 b 838 71 822 -39 834 30 b 839 165 838 92 839 124 l 839 707 l 657 707 l 647 657 b 431 721 585 699 513 720 b 174 625 324 720 239 688 b 77 376 109 562 77 479 b 167 155 77 286 106 212 b 397 69 227 98 304 69 b 643 180 505 69 587 106 l 643 102 b 444 -89 643 -25 568 -89 b 184 -22 355 -89 251 -60 l 111 -174 b 447 -253 200 -222 319 -253 z "},"Ģ":{"ha":1101,"x_min":0,"x_max":0,"o":"m 1022 532 l 551 532 l 551 367 l 814 367 l 814 256 b 618 192 771 213 706 192 b 392 269 522 192 447 218 b 309 468 336 321 309 387 b 590 737 309 639 441 737 b 832 639 690 737 770 705 l 986 779 b 583 951 899 894 765 951 b 74 468 325 951 74 777 b 593 -14 68 191 286 -17 b 1022 187 770 -14 935 58 z m 614 -406 b 689 -167 670 -270 689 -211 b 589 -62 689 -107 646 -62 b 489 -160 536 -62 489 -109 b 571 -257 489 -214 520 -252 b 529 -372 563 -285 549 -323 z "},"ģ":{"ha":964,"x_min":0,"x_max":0,"o":"m 467 787 b 567 885 520 787 567 833 b 485 982 567 939 536 977 b 526 1097 494 1014 508 1053 l 441 1131 b 367 892 387 997 367 937 b 467 787 367 832 410 787 z m 463 237 b 298 393 367 237 298 295 b 478 555 298 492 372 555 b 624 498 532 555 580 536 l 624 390 b 463 237 624 294 564 237 z m 447 -253 b 791 -90 621 -253 735 -199 b 838 71 822 -39 834 30 b 839 165 838 92 839 124 l 839 707 l 657 707 l 647 657 b 431 721 585 699 513 720 b 174 625 324 720 239 688 b 77 376 109 562 77 479 b 167 155 77 286 106 212 b 397 69 227 98 304 69 b 643 180 505 69 587 106 l 643 102 b 444 -89 643 -25 568 -89 b 184 -22 355 -89 251 -60 l 111 -174 b 447 -253 200 -222 319 -253 z "},"Ĥ":{"ha":1179,"x_min":0,"x_max":0,"o":"m 859 1126 l 587 1318 l 317 1126 l 389 1026 l 587 1153 l 789 1025 z m 1034 0 l 1034 937 l 811 937 l 811 570 l 368 570 l 368 937 l 146 937 l 146 0 l 368 0 l 368 382 l 811 382 l 811 0 z "},"ĥ":{"ha":970,"x_min":0,"x_max":0,"o":"m 503 1089 l 232 1280 l -39 1089 l 33 989 l 232 1116 l 433 987 z m 338 317 b 507 532 338 458 406 532 b 606 494 549 532 582 519 b 633 382 633 458 633 431 l 633 0 l 846 0 l 846 419 b 841 507 846 461 846 470 b 832 552 839 526 836 541 b 787 633 825 574 809 608 b 567 721 740 692 667 721 b 338 621 468 721 391 688 l 338 965 l 125 965 l 125 0 l 338 0 z "},"Ħ":{"ha":1180,"x_min":0,"x_max":0,"o":"m 368 570 l 368 686 l 811 686 l 811 570 z m 1034 0 l 1034 686 l 1139 686 l 1139 828 l 1034 828 l 1034 937 l 811 937 l 811 828 l 368 828 l 368 937 l 146 937 l 146 828 l 41 828 l 41 686 l 146 686 l 146 0 l 368 0 l 368 382 l 811 382 l 811 0 z "},"ħ":{"ha":970,"x_min":0,"x_max":0,"o":"m 338 317 b 507 532 338 458 406 532 b 606 494 549 532 582 519 b 633 382 633 458 633 431 l 633 0 l 846 0 l 846 419 b 841 507 846 461 846 470 b 832 552 839 526 836 541 b 787 633 825 574 809 608 b 567 721 740 692 667 721 b 338 621 468 721 391 688 l 338 768 l 465 768 l 465 907 l 338 907 l 338 965 l 125 965 l 125 907 l 4 907 l 4 768 l 125 768 l 125 0 l 338 0 l 338 317 z "},"Ī":{"ha":513,"x_min":0,"x_max":0,"o":"m 22 1083 l 492 1083 l 492 1223 l 22 1223 z m 146 0 l 368 0 l 368 937 l 146 937 z "},"ī":{"ha":464,"x_min":0,"x_max":0,"o":"m -3 851 l 467 851 l 467 991 l -3 991 z m 125 0 l 339 0 l 339 707 l 125 707 z "},"Į":{"ha":513,"x_min":0,"x_max":0,"o":"m 374 -216 b 302 -109 326 -183 302 -147 b 368 0 302 -68 324 -33 l 368 937 l 146 937 l 146 0 l 208 0 b 161 -142 175 -41 159 -88 b 271 -325 163 -206 201 -273 l 374 -216 z "},"į":{"ha":464,"x_min":0,"x_max":0,"o":"m 233 1026 b 114 921 165 1026 114 983 b 233 817 114 861 165 817 b 351 921 300 817 351 861 b 233 1026 351 983 300 1026 z m 346 -216 b 275 -109 299 -183 275 -147 b 340 0 275 -68 297 -32 l 339 1 l 339 707 l 125 707 l 125 0 l 180 0 b 134 -142 147 -41 132 -88 b 243 -325 136 -206 173 -273 z "},"İ":{"ha":513,"x_min":0,"x_max":0,"o":"m 172 1236 b 138 1160 149 1216 138 1190 b 257 1055 138 1100 190 1055 b 375 1160 325 1055 375 1100 b 172 1236 384 1255 241 1299 z m 146 0 l 368 0 l 368 937 l 146 937 z "},"ı":{"ha":464,"x_min":0,"x_max":0,"o":"m 125 0 l 339 0 l 339 707 l 125 707 z "},"ĳ":{"ha":909,"x_min":0,"x_max":0,"o":"m 594 997 b 559 921 571 977 559 951 b 679 817 559 861 612 817 b 798 921 746 817 798 861 b 594 997 806 1016 661 1059 z m 233 1026 b 114 921 165 1026 114 983 b 233 817 114 861 165 817 b 351 921 300 817 351 861 b 233 1026 351 983 300 1026 z m 572 216 b 564 85 572 151 572 129 b 543 25 559 63 552 43 b 395 -93 517 -26 468 -66 l 482 -261 b 737 -50 605 -217 690 -146 b 785 142 768 10 781 95 b 786 244 785 166 786 200 l 786 707 l 572 707 z m 125 0 l 339 0 l 339 707 l 125 707 z "},"Ĵ":{"ha":557,"x_min":0,"x_max":0,"o":"m 571 1126 l 300 1318 l 29 1126 l 102 1026 l 300 1153 l 501 1025 z m 189 218 b 176 90 189 157 189 133 b 147 29 170 67 160 47 b 4 -71 123 -6 75 -39 l 100 -249 b 353 -43 216 -208 300 -140 b 404 115 380 8 397 56 b 410 188 408 144 410 169 b 411 268 411 206 411 233 l 411 937 l 189 937 z "},"ĵ":{"ha":509,"x_min":0,"x_max":0,"o":"m 549 895 l 278 1086 l 7 895 l 79 794 l 278 921 l 479 793 z m 172 216 b 163 85 172 151 172 129 b 143 25 159 63 152 43 b -7 -93 117 -27 67 -66 l 81 -261 b 338 -50 205 -217 291 -146 b 383 142 368 9 381 96 b 385 244 384 165 385 199 l 385 707 l 172 707 z "},"Ķ":{"ha":1023,"x_min":0,"x_max":0,"o":"m 1038 0 l 590 473 l 985 937 l 722 937 l 368 515 l 368 937 l 146 937 l 146 0 l 368 0 l 368 407 l 737 0 z m 553 -406 b 628 -167 609 -270 628 -211 b 528 -62 628 -107 585 -62 b 428 -160 475 -62 428 -109 b 510 -257 428 -214 459 -252 b 468 -372 502 -285 488 -323 z "},"ķ":{"ha":875,"x_min":0,"x_max":0,"o":"m 878 0 l 549 358 l 835 707 l 590 707 l 338 397 l 338 965 l 125 965 l 125 0 l 338 0 l 338 302 l 602 0 z m 468 -406 b 543 -167 524 -270 543 -211 b 443 -62 543 -107 500 -62 b 343 -160 391 -62 343 -109 b 425 -257 343 -214 374 -252 b 383 -372 417 -285 403 -323 z "},"Ĺ":{"ha":831,"x_min":0,"x_max":0,"o":"m 126 1128 l 195 1026 l 501 1222 l 422 1339 z m 836 0 l 836 204 l 368 204 l 368 937 l 146 937 l 146 0 z "},"ĺ":{"ha":464,"x_min":0,"x_max":0,"o":"m 102 1146 l 170 1044 l 476 1240 l 397 1357 z m 339 0 l 339 965 l 125 965 l 125 0 z "},"Ļ":{"ha":831,"x_min":0,"x_max":0,"o":"m 836 0 l 836 204 l 368 204 l 368 937 l 146 937 l 146 0 z m 490 -406 b 566 -167 547 -270 566 -211 b 465 -62 566 -107 522 -62 b 366 -160 413 -62 366 -109 b 447 -257 366 -214 396 -252 b 406 -372 437 -289 424 -328 z "},"ļ":{"ha":464,"x_min":0,"x_max":0,"o":"m 339 0 l 339 965 l 125 965 l 125 0 z m 254 -406 b 329 -167 311 -272 329 -212 b 229 -62 329 -107 286 -62 b 129 -160 176 -62 129 -109 b 211 -257 129 -214 160 -252 b 170 -372 201 -289 188 -328 z "},"Ľ":{"ha":831,"x_min":0,"x_max":0,"o":"m 468 850 l 578 794 l 746 1120 l 619 1179 z m 836 0 l 836 204 l 368 204 l 368 937 l 146 937 l 146 0 z "},"ľ":{"ha":504,"x_min":0,"x_max":0,"o":"m 385 850 l 494 794 l 663 1120 l 536 1179 z m 339 0 l 339 965 l 125 965 l 125 0 z "},"Ŀ":{"ha":831,"x_min":0,"x_max":0,"o":"m 836 0 l 836 204 l 368 204 l 368 937 l 146 937 l 146 0 z m 611 616 b 492 511 543 616 492 573 b 611 407 492 452 544 407 b 729 511 679 407 729 452 b 611 616 729 573 680 616 z "},"ŀ":{"ha":566,"x_min":0,"x_max":0,"o":"m 339 0 l 339 965 l 125 965 l 125 0 z m 431 552 b 396 476 408 532 396 507 b 515 372 396 416 448 372 b 633 476 583 372 633 416 b 431 552 642 571 498 616 z "},"Ł":{"ha":847,"x_min":0,"x_max":0,"o":"m 851 204 l 383 204 l 383 418 l 637 562 l 551 711 l 383 615 l 383 937 l 161 937 l 161 489 l -37 375 l 47 228 l 161 292 l 161 0 l 851 0 z "},"ł":{"ha":464,"x_min":0,"x_max":0,"o":"m 339 473 l 497 566 l 412 713 l 339 671 l 339 965 l 125 965 l 125 547 l -33 457 l 52 309 l 125 351 l 125 0 l 339 0 z "},"Ń":{"ha":1187,"x_min":0,"x_max":0,"o":"m 463 1128 l 530 1026 l 838 1222 l 758 1339 z m 1042 0 l 1042 937 l 832 937 l 832 186 l 507 937 l 146 937 l 146 0 l 355 0 l 355 742 l 672 0 z "},"ń":{"ha":970,"x_min":0,"x_max":0,"o":"m 354 896 l 422 794 l 729 990 l 650 1107 z m 505 532 b 604 494 549 532 582 519 b 633 382 633 458 633 430 l 633 0 l 846 0 l 846 419 b 839 528 846 469 846 487 b 789 633 833 569 816 602 b 567 721 741 692 667 721 b 323 603 459 721 378 682 l 304 707 l 125 707 l 125 0 l 339 0 l 339 351 b 505 532 348 471 411 532 z "},"Ņ":{"ha":1187,"x_min":0,"x_max":0,"o":"m 1042 0 l 1042 937 l 832 937 l 832 186 l 507 937 l 146 937 l 146 0 l 355 0 l 355 742 l 672 0 z m 616 -406 b 692 -167 673 -270 692 -211 b 591 -62 692 -107 648 -62 b 492 -160 539 -62 492 -109 b 574 -257 492 -214 523 -252 b 532 -372 566 -285 551 -323 z "},"ņ":{"ha":970,"x_min":0,"x_max":0,"o":"m 505 532 b 604 494 549 532 582 519 b 633 382 633 458 633 430 l 633 0 l 846 0 l 846 419 b 839 528 846 469 846 487 b 789 633 833 569 816 602 b 567 721 741 692 667 721 b 323 603 459 721 378 682 l 304 707 l 125 707 l 125 0 l 339 0 l 339 351 b 505 532 348 471 411 532 z m 510 -406 b 585 -167 566 -272 585 -212 b 485 -62 585 -107 542 -62 b 385 -160 432 -62 385 -109 b 467 -257 385 -214 416 -252 b 425 -372 457 -289 444 -328 z "},"Ň":{"ha":1187,"x_min":0,"x_max":0,"o":"m 873 1217 l 802 1317 l 603 1190 l 401 1318 l 332 1217 l 603 1025 z m 1042 0 l 1042 937 l 832 937 l 832 186 l 507 937 l 146 937 l 146 0 l 355 0 l 355 742 l 672 0 z "},"ň":{"ha":970,"x_min":0,"x_max":0,"o":"m 765 985 l 693 1084 l 494 958 l 293 1086 l 224 985 l 494 793 z m 505 532 b 604 494 549 532 582 519 b 633 382 633 458 633 430 l 633 0 l 846 0 l 846 419 b 839 528 846 469 846 487 b 789 633 833 569 816 602 b 567 721 741 692 667 721 b 323 603 459 721 378 682 l 304 707 l 125 707 l 125 0 l 339 0 l 339 351 b 505 532 348 471 411 532 z "},"Ō":{"ha":1183,"x_min":0,"x_max":0,"o":"m 357 1083 l 827 1083 l 827 1223 l 357 1223 z m 391 916 b 74 468 205 846 74 686 b 591 -14 68 188 312 -19 b 1109 468 871 -19 1115 188 b 792 916 1109 686 979 846 b 391 916 665 963 517 963 z m 591 742 b 795 667 672 742 740 717 b 878 468 850 616 878 550 b 795 270 878 386 850 320 b 591 195 740 220 672 195 b 389 270 511 195 444 220 b 307 468 334 320 307 386 b 389 667 307 550 334 616 b 591 742 444 717 511 742 z "},"ō":{"ha":936,"x_min":0,"x_max":0,"o":"m 233 851 l 703 851 l 703 991 l 233 991 z m 469 721 b 184 620 351 721 256 687 b 77 353 113 553 77 463 b 184 87 77 242 113 154 b 469 -14 256 20 351 -14 b 753 87 587 -14 682 20 b 860 353 824 154 860 242 b 753 620 860 463 824 553 b 469 721 681 687 587 721 z m 469 534 b 639 353 572 534 639 465 b 469 172 639 241 572 172 b 298 353 364 172 298 241 b 469 534 298 465 364 534 z "},"Ő":{"ha":1183,"x_min":0,"x_max":0,"o":"m 313 1112 l 395 1022 l 667 1254 l 572 1358 z m 639 1120 l 717 1023 l 986 1239 l 896 1343 z m 391 916 b 74 468 205 846 74 686 b 591 -14 68 188 312 -19 b 1109 468 871 -19 1115 188 b 792 916 1109 686 979 846 b 391 916 665 963 517 963 z m 591 742 b 795 667 672 742 740 717 b 878 468 850 616 878 550 b 795 270 878 386 850 320 b 591 195 740 220 672 195 b 389 270 511 195 444 220 b 307 468 334 320 307 386 b 389 667 307 550 334 616 b 591 742 444 717 511 742 z "},"ő":{"ha":936,"x_min":0,"x_max":0,"o":"m 191 879 l 272 789 l 545 1021 l 450 1125 z m 517 886 l 595 790 l 864 1006 l 774 1109 z m 469 721 b 184 620 351 721 256 687 b 77 353 113 553 77 463 b 184 87 77 242 113 154 b 469 -14 256 20 351 -14 b 753 87 587 -14 682 20 b 860 353 824 154 860 242 b 753 620 860 463 824 553 b 469 721 681 687 587 721 z m 469 534 b 639 353 572 534 639 465 b 469 172 639 241 572 172 b 298 353 364 172 298 241 b 469 534 298 465 364 534 z "},"Œ":{"ha":1729,"x_min":0,"x_max":0,"o":"m 591 742 b 795 667 672 742 740 717 b 878 468 850 616 878 550 b 795 270 878 386 850 320 b 591 195 740 220 672 195 b 389 270 511 195 444 220 b 307 468 334 320 307 386 b 389 667 307 550 334 616 b 591 742 444 717 511 742 z m 1664 0 l 1664 180 l 1083 180 l 1083 390 l 1525 390 l 1525 562 l 1083 562 l 1083 755 l 1646 755 l 1646 937 l 878 937 l 878 854 b 591 951 795 919 700 951 b 74 468 307 951 74 755 b 591 -14 68 188 312 -19 b 878 83 700 -14 795 19 l 878 0 z "},"œ":{"ha":1463,"x_min":0,"x_max":0,"o":"m 1026 566 b 1179 415 1117 566 1181 509 l 1179 414 l 854 414 b 1026 566 869 515 926 566 z m 469 534 b 639 353 572 534 639 465 b 469 172 639 242 572 172 b 298 353 364 172 298 241 b 469 534 298 465 364 534 z m 1292 183 b 1093 142 1225 155 1159 142 b 859 286 950 142 880 183 l 1385 286 b 1394 412 1391 330 1394 372 b 1028 721 1389 623 1205 721 b 747 597 915 721 813 680 b 469 721 682 680 589 721 b 184 620 351 721 256 687 b 77 353 113 553 77 463 b 184 87 77 242 113 154 b 469 -14 256 20 351 -14 b 745 106 586 -14 682 29 b 1053 -14 812 26 915 -14 b 1346 45 1170 -14 1267 6 z "},"Ŕ":{"ha":1104,"x_min":0,"x_max":0,"o":"m 400 1128 l 468 1026 l 775 1222 l 696 1339 z m 547 758 b 668 747 607 758 626 758 b 722 718 689 741 707 731 b 771 608 755 693 771 656 b 721 496 771 559 754 521 b 614 457 690 470 642 459 b 551 456 600 456 578 456 l 368 456 l 368 758 z m 1015 0 l 777 304 b 893 371 817 319 856 342 b 1004 616 962 423 1004 513 b 911 843 1004 709 973 785 b 737 926 860 889 797 912 b 604 937 701 933 636 935 l 534 937 l 146 937 l 146 0 l 368 0 l 368 277 l 551 277 l 758 0 z "},"ŕ":{"ha":616,"x_min":0,"x_max":0,"o":"m 233 896 l 301 794 l 608 990 l 529 1107 z m 345 317 b 568 515 345 480 440 546 l 596 705 b 519 713 566 711 541 714 b 330 603 440 710 377 673 l 311 707 l 132 707 l 132 0 l 345 0 z "},"Ř":{"ha":1104,"x_min":0,"x_max":0,"o":"m 811 1217 l 739 1317 l 541 1190 l 339 1318 l 269 1217 l 541 1025 z m 547 758 b 668 747 607 758 626 758 b 722 718 689 741 707 731 b 771 608 755 693 771 656 b 721 496 771 559 754 521 b 614 457 690 470 642 459 b 551 456 600 456 578 456 l 368 456 l 368 758 z m 1015 0 l 777 304 b 893 371 817 319 856 342 b 1004 616 962 423 1004 513 b 911 843 1004 709 973 785 b 737 926 860 889 797 912 b 604 937 701 933 636 935 l 534 937 l 146 937 l 146 0 l 368 0 l 368 277 l 551 277 l 758 0 z "},"ř":{"ha":616,"x_min":0,"x_max":0,"o":"m 644 985 l 572 1084 l 374 958 l 172 1086 l 103 985 l 374 793 z m 345 317 b 568 515 345 480 440 546 l 596 705 b 519 713 566 711 541 714 b 330 603 440 710 377 673 l 311 707 l 132 707 l 132 0 l 345 0 z "},"Ś":{"ha":1034,"x_min":0,"x_max":0,"o":"m 401 1128 l 469 1026 l 777 1222 l 697 1339 z m 922 871 b 533 951 800 924 669 951 b 134 667 328 951 136 867 b 519 382 134 458 330 405 b 704 278 634 366 706 346 b 542 186 704 202 616 186 b 178 279 420 186 299 217 l 87 87 b 525 -14 213 20 359 -14 b 951 285 711 -14 951 53 b 805 503 951 399 892 463 b 608 555 744 532 686 545 l 589 559 b 446 587 519 569 472 578 b 370 664 395 604 370 630 b 510 751 369 724 425 751 b 846 677 622 751 734 727 z "},"ś":{"ha":843,"x_min":0,"x_max":0,"o":"m 289 896 l 357 794 l 664 990 l 585 1107 z m 734 657 b 416 721 636 700 530 721 b 109 500 234 721 109 644 b 191 350 109 433 137 382 b 390 283 245 317 302 300 b 519 252 455 271 498 261 b 550 210 540 243 550 229 b 443 157 550 169 510 157 b 160 214 341 157 247 176 l 90 56 b 440 -14 193 9 310 -14 b 753 212 597 -14 753 47 b 640 381 753 300 714 351 b 453 425 586 401 536 414 b 336 453 393 435 354 444 b 309 494 317 462 309 475 b 393 545 309 530 334 545 b 677 497 486 545 597 530 z "},"Ŝ":{"ha":1034,"x_min":0,"x_max":0,"o":"m 803 1126 l 532 1318 l 261 1126 l 334 1026 l 532 1153 l 733 1025 z m 922 871 b 533 951 800 924 669 951 b 134 667 328 951 136 867 b 519 382 134 458 330 405 b 704 278 634 366 706 346 b 542 186 704 202 616 186 b 178 279 420 186 299 217 l 87 87 b 525 -14 213 20 359 -14 b 951 285 711 -14 951 53 b 805 503 951 399 892 463 b 608 555 744 532 686 545 l 589 559 b 446 587 519 569 472 578 b 370 664 395 604 370 630 b 510 751 369 724 425 751 b 846 677 622 751 734 727 z "},"ŝ":{"ha":843,"x_min":0,"x_max":0,"o":"m 689 895 l 418 1086 l 147 895 l 220 794 l 418 921 l 619 793 z m 734 657 b 416 721 636 700 530 721 b 109 500 234 721 109 644 b 191 350 109 433 137 382 b 390 283 245 317 302 300 b 519 252 455 271 498 261 b 550 210 540 243 550 229 b 443 157 550 169 510 157 b 160 214 341 157 247 176 l 90 56 b 440 -14 193 9 310 -14 b 753 212 597 -14 753 47 b 640 381 753 300 714 351 b 453 425 586 401 536 414 b 336 453 393 435 354 444 b 309 494 317 462 309 475 b 393 545 309 530 334 545 b 677 497 486 545 597 530 z "},"Ş":{"ha":1034,"x_min":0,"x_max":0,"o":"m 407 -262 b 586 -11 517 -217 581 -130 b 951 285 760 2 951 77 b 805 503 951 399 892 463 b 608 555 744 532 686 545 l 589 559 b 446 587 519 569 472 578 b 370 664 395 604 370 630 b 510 751 369 724 425 751 b 846 677 622 751 734 727 l 922 871 b 533 951 800 924 669 951 b 134 667 328 951 136 867 b 519 382 134 458 330 405 b 704 278 634 366 706 346 b 542 186 704 202 616 186 b 178 279 420 186 299 217 l 87 87 b 446 -11 194 30 313 -3 b 334 -132 427 -64 385 -107 l 407 -262 z "},"ş":{"ha":843,"x_min":0,"x_max":0,"o":"m 334 -262 b 513 -9 445 -217 509 -130 b 753 212 642 9 753 71 b 640 381 753 300 714 351 b 453 425 586 401 536 414 b 336 453 393 435 354 444 b 309 494 317 462 309 475 b 393 545 309 530 334 545 b 677 497 486 545 597 530 l 734 657 b 416 721 636 700 530 721 b 109 500 234 721 109 644 b 191 350 109 433 137 382 b 390 283 245 317 302 300 b 519 252 455 271 498 261 b 550 210 540 243 550 229 b 443 157 550 169 510 157 b 160 214 341 157 247 176 l 90 56 b 372 -11 176 18 271 -4 b 260 -132 353 -64 311 -107 l 334 -262 z "},"Š":{"ha":1034,"x_min":0,"x_max":0,"o":"m 812 1217 l 741 1317 l 542 1190 l 340 1318 l 271 1217 l 542 1025 z m 922 871 b 533 951 800 924 669 951 b 134 667 328 951 136 867 b 519 382 134 458 330 405 b 704 278 634 366 706 346 b 542 186 704 202 616 186 b 178 279 420 186 299 217 l 87 87 b 525 -14 213 20 359 -14 b 951 285 711 -14 951 53 b 805 503 951 399 892 463 b 608 555 744 532 686 545 l 589 559 b 446 587 519 569 472 578 b 370 664 395 604 370 630 b 510 751 369 724 425 751 b 846 677 622 751 734 727 z "},"š":{"ha":843,"x_min":0,"x_max":0,"o":"m 700 985 l 628 1084 l 429 958 l 228 1086 l 158 985 l 429 793 z m 734 657 b 416 721 636 700 530 721 b 109 500 234 721 109 644 b 191 350 109 433 137 382 b 390 283 245 317 302 300 b 519 252 455 271 498 261 b 550 210 540 243 550 229 b 443 157 550 169 510 157 b 160 214 341 157 247 176 l 90 56 b 440 -14 193 9 310 -14 b 753 212 597 -14 753 47 b 640 381 753 300 714 351 b 453 425 586 401 536 414 b 336 453 393 435 354 444 b 309 494 317 462 309 475 b 393 545 309 530 334 545 b 677 497 486 545 597 530 z "},"Ţ":{"ha":865,"x_min":0,"x_max":0,"o":"m 856 937 l 11 937 l 11 732 l 322 732 l 322 0 l 543 0 l 543 732 l 856 732 z m 460 -406 b 534 -167 516 -272 534 -212 b 435 -62 534 -107 492 -62 b 335 -160 382 -62 335 -109 b 416 -257 335 -214 366 -252 b 375 -372 407 -289 393 -328 z "},"ţ":{"ha":668,"x_min":0,"x_max":0,"o":"m 550 193 b 464 174 520 180 492 174 b 410 200 440 174 422 182 b 393 306 393 227 393 260 l 393 566 l 566 566 l 566 707 l 393 707 l 393 885 l 179 885 l 179 707 l 49 707 l 49 566 l 179 566 l 179 267 b 192 138 179 206 180 182 b 221 78 198 115 208 96 b 431 -14 262 17 332 -14 b 606 26 491 -15 549 -1 z m 414 -406 b 489 -167 470 -270 489 -211 b 389 -62 489 -107 446 -62 b 289 -160 336 -62 289 -109 b 371 -257 289 -214 320 -252 b 329 -372 363 -285 349 -323 z "},"Ť":{"ha":865,"x_min":0,"x_max":0,"o":"m 711 1217 l 639 1317 l 440 1190 l 239 1318 l 170 1217 l 440 1025 z m 856 937 l 11 937 l 11 732 l 322 732 l 322 0 l 543 0 l 543 732 l 856 732 z "},"ť":{"ha":668,"x_min":0,"x_max":0,"o":"m 475 850 l 585 794 l 753 1120 l 627 1179 z m 550 193 b 464 174 520 180 492 174 b 410 200 440 174 422 182 b 393 306 393 227 393 260 l 393 566 l 566 566 l 566 707 l 393 707 l 393 885 l 179 885 l 179 707 l 49 707 l 49 566 l 179 566 l 179 267 b 192 138 179 206 180 182 b 221 78 198 115 208 96 b 431 -14 262 17 332 -14 b 606 26 491 -15 549 -1 z "},"Ū":{"ha":1136,"x_min":0,"x_max":0,"o":"m 334 1083 l 803 1083 l 803 1223 l 334 1223 z m 1008 937 l 786 937 l 786 449 b 745 267 786 359 781 312 b 567 199 705 221 646 199 b 392 267 488 199 429 221 b 352 378 366 298 354 345 b 350 449 351 394 350 418 l 350 937 l 129 937 l 129 425 b 135 296 129 368 130 347 b 149 232 138 271 142 250 b 218 115 160 197 184 151 b 562 -14 298 29 412 -14 b 917 115 714 -14 838 31 b 997 264 963 164 983 216 b 1008 370 1006 293 1006 345 l 1008 427 z "},"ū":{"ha":958,"x_min":0,"x_max":0,"o":"m 243 851 l 713 851 l 713 991 l 243 991 z m 833 0 l 833 707 l 621 707 l 621 390 b 461 174 621 247 562 174 b 368 210 420 175 389 187 b 338 322 338 245 338 271 l 338 707 l 125 707 l 125 285 b 134 171 127 231 127 214 b 193 61 142 128 161 96 b 401 -14 240 12 310 -14 b 635 103 507 -14 584 25 l 654 0 z "},"Ŭ":{"ha":1136,"x_min":0,"x_max":0,"o":"m 340 1272 b 570 1051 340 1138 431 1051 b 798 1272 710 1051 798 1137 l 665 1272 b 568 1178 665 1217 624 1178 b 473 1272 513 1178 473 1216 z m 1008 937 l 786 937 l 786 449 b 745 267 786 359 781 312 b 567 199 705 221 646 199 b 392 267 488 199 429 221 b 352 378 366 298 354 345 b 350 449 351 394 350 418 l 350 937 l 129 937 l 129 425 b 135 296 129 368 130 347 b 149 232 138 271 142 250 b 218 115 160 197 184 151 b 562 -14 298 29 412 -14 b 917 115 714 -14 838 31 b 997 264 963 164 983 216 b 1008 370 1006 293 1006 345 l 1008 427 z "},"ŭ":{"ha":958,"x_min":0,"x_max":0,"o":"m 250 1040 b 479 819 250 906 340 819 b 707 1040 620 819 707 905 l 575 1040 b 478 946 575 985 534 946 b 383 1040 423 946 383 984 z m 833 0 l 833 707 l 621 707 l 621 390 b 461 174 621 247 562 174 b 368 210 420 175 389 187 b 338 322 338 245 338 271 l 338 707 l 125 707 l 125 285 b 134 171 127 231 127 214 b 193 61 142 128 161 96 b 401 -14 240 12 310 -14 b 635 103 507 -14 584 25 l 654 0 z "},"Ů":{"ha":1136,"x_min":0,"x_max":0,"o":"m 570 1039 b 692 1092 616 1039 657 1057 b 745 1215 727 1126 745 1168 b 692 1338 745 1262 727 1303 b 570 1390 657 1373 616 1390 b 445 1338 522 1390 480 1373 b 392 1215 410 1303 392 1262 b 445 1091 392 1167 410 1126 b 570 1039 480 1057 522 1039 z m 570 1139 b 493 1215 526 1139 493 1172 b 570 1289 493 1257 526 1289 b 643 1215 611 1289 643 1257 b 570 1139 643 1173 612 1139 z m 1008 937 l 786 937 l 786 449 b 745 267 786 359 781 312 b 567 199 705 221 646 199 b 392 267 488 199 429 221 b 352 378 366 298 354 345 b 350 449 351 394 350 418 l 350 937 l 129 937 l 129 425 b 135 296 129 368 130 347 b 149 232 138 271 142 250 b 218 115 160 197 184 151 b 562 -14 298 29 412 -14 b 917 115 714 -14 838 31 b 997 264 963 164 983 216 b 1008 370 1006 293 1006 345 l 1008 427 z "},"ů":{"ha":958,"x_min":0,"x_max":0,"o":"m 481 806 b 604 859 528 806 568 823 b 656 982 638 893 656 935 b 604 1105 656 1029 638 1070 b 481 1157 568 1139 528 1157 b 356 1105 433 1157 391 1139 b 302 982 320 1070 302 1029 b 356 859 302 935 320 893 b 481 806 391 823 433 806 z m 481 905 b 404 982 437 905 404 939 b 481 1055 404 1023 437 1055 b 554 982 522 1055 554 1023 b 481 905 554 940 523 905 z m 833 0 l 833 707 l 621 707 l 621 390 b 461 174 621 247 562 174 b 368 210 420 175 389 187 b 338 322 338 245 338 271 l 338 707 l 125 707 l 125 285 b 134 171 127 231 127 214 b 193 61 142 128 161 96 b 401 -14 240 12 310 -14 b 635 103 507 -14 584 25 l 654 0 z "},"Ű":{"ha":1136,"x_min":0,"x_max":0,"o":"m 290 1112 l 372 1022 l 644 1254 l 550 1358 z m 616 1120 l 694 1023 l 964 1239 l 873 1343 z m 1008 937 l 786 937 l 786 449 b 745 267 786 359 781 312 b 567 199 705 221 646 199 b 392 267 488 199 429 221 b 352 378 366 298 354 345 b 350 449 351 394 350 418 l 350 937 l 129 937 l 129 425 b 135 296 129 368 130 347 b 149 232 138 271 142 250 b 218 115 160 197 184 151 b 562 -14 298 29 412 -14 b 917 115 714 -14 838 31 b 997 264 963 164 983 216 b 1008 370 1006 293 1006 345 l 1008 427 z "},"ű":{"ha":958,"x_min":0,"x_max":0,"o":"m 200 879 l 282 789 l 554 1021 l 460 1125 z m 526 886 l 604 790 l 873 1006 l 783 1109 z m 833 0 l 833 707 l 621 707 l 621 390 b 461 174 621 247 562 174 b 368 210 420 175 389 187 b 338 322 338 245 338 271 l 338 707 l 125 707 l 125 285 b 134 171 127 231 127 214 b 193 61 142 128 161 96 b 401 -14 240 12 310 -14 b 635 103 507 -14 584 25 l 654 0 z "},"Ų":{"ha":1136,"x_min":0,"x_max":0,"o":"m 705 -216 b 635 -109 659 -183 635 -147 b 700 0 635 -68 656 -32 b 917 115 792 20 865 59 b 997 264 963 164 983 216 b 1008 370 1006 293 1006 345 l 1008 427 l 1008 937 l 786 937 l 786 449 b 745 267 786 359 781 312 b 567 199 705 221 646 199 b 392 267 488 199 429 221 b 352 378 366 298 354 345 b 350 449 351 394 350 418 l 350 937 l 129 937 l 129 425 b 135 296 129 368 130 347 b 149 232 138 271 142 250 b 218 115 160 197 184 151 b 530 -12 292 36 397 -7 b 493 -142 504 -53 491 -96 b 603 -325 495 -206 532 -273 z "},"ų":{"ha":958,"x_min":0,"x_max":0,"o":"m 839 -216 b 768 -109 792 -183 768 -147 b 833 0 768 -68 790 -32 l 833 707 l 621 707 l 621 390 b 461 174 621 247 562 174 b 368 210 420 175 389 187 b 338 322 338 245 338 271 l 338 707 l 125 707 l 125 285 b 134 171 127 231 127 214 b 193 61 142 128 161 96 b 401 -14 240 12 310 -14 b 635 103 507 -14 584 25 l 654 0 l 673 0 b 627 -142 640 -41 625 -88 b 736 -325 629 -206 666 -273 l 839 -216 z "},"Ÿ":{"ha":1004,"x_min":0,"x_max":0,"o":"m 338 1265 b 216 1160 270 1265 216 1223 b 338 1055 216 1097 270 1055 b 456 1160 404 1055 456 1097 b 338 1265 456 1223 405 1265 z m 587 1236 b 587 1084 539 1198 540 1121 b 672 1055 610 1065 638 1055 b 790 1160 739 1055 790 1097 b 587 1236 798 1257 656 1297 z m 611 307 l 994 937 l 746 937 l 500 511 l 268 937 l 11 937 l 389 309 l 389 0 l 611 0 z "},"Ź":{"ha":986,"x_min":0,"x_max":0,"o":"m 361 1128 l 429 1026 l 736 1222 l 657 1339 z m 909 187 l 375 187 l 871 760 l 871 937 l 92 937 l 92 749 l 583 749 l 77 178 l 77 0 l 909 0 z "},"ź":{"ha":791,"x_min":0,"x_max":0,"o":"m 264 896 l 332 794 l 639 990 l 559 1107 z m 725 170 l 330 170 l 710 553 l 710 707 l 97 707 l 97 538 l 437 538 l 66 155 l 66 0 l 725 0 z "},"Ż":{"ha":986,"x_min":0,"x_max":0,"o":"m 408 1236 b 374 1160 385 1216 374 1190 b 493 1055 374 1100 426 1055 b 611 1160 561 1055 611 1100 b 408 1236 620 1255 476 1299 z m 909 187 l 375 187 l 871 760 l 871 937 l 92 937 l 92 749 l 583 749 l 77 178 l 77 0 l 909 0 z "},"ż":{"ha":791,"x_min":0,"x_max":0,"o":"m 311 1004 b 277 928 288 984 277 958 b 396 823 277 868 329 823 b 514 928 464 823 514 868 b 311 1004 523 1023 379 1067 z m 725 170 l 330 170 l 710 553 l 710 707 l 97 707 l 97 538 l 437 538 l 66 155 l 66 0 l 725 0 z "},"Ž":{"ha":986,"x_min":0,"x_max":0,"o":"m 772 1217 l 700 1317 l 501 1190 l 300 1318 l 231 1217 l 501 1025 z m 909 187 l 375 187 l 871 760 l 871 937 l 92 937 l 92 749 l 583 749 l 77 178 l 77 0 l 909 0 z "},"ž":{"ha":791,"x_min":0,"x_max":0,"o":"m 675 985 l 603 1084 l 404 958 l 203 1086 l 134 985 l 404 793 z m 725 170 l 330 170 l 710 553 l 710 707 l 97 707 l 97 538 l 437 538 l 66 155 l 66 0 l 725 0 z "},"ſ":{"ha":544,"x_min":0,"x_max":0,"o":"m 392 730 b 472 823 392 792 418 823 b 541 819 496 823 518 822 l 567 975 b 457 985 528 981 492 985 b 179 707 279 985 179 878 l 52 707 l 52 566 l 179 566 l 179 0 l 392 0 z "},"Ș":{"ha":1034,"x_min":0,"x_max":0,"o":"m 922 871 b 533 951 800 924 669 951 b 134 667 328 951 136 867 b 519 382 134 458 330 405 b 704 278 634 366 706 346 b 542 186 704 202 616 186 b 178 279 420 186 299 217 l 87 87 b 525 -14 213 20 359 -14 b 951 285 711 -14 951 53 b 805 503 951 399 892 463 b 608 555 744 532 686 545 l 589 559 b 446 587 519 569 472 578 b 370 664 395 604 370 630 b 510 751 369 724 425 751 b 846 677 622 751 734 727 z m 608 -406 b 684 -167 665 -270 684 -211 b 583 -62 684 -107 640 -62 b 484 -160 531 -62 484 -109 b 566 -257 484 -214 515 -252 b 524 -372 557 -285 543 -323 z "},"ș":{"ha":843,"x_min":0,"x_max":0,"o":"m 734 657 b 416 721 636 700 530 721 b 109 500 234 721 109 644 b 191 350 109 433 137 382 b 390 283 245 317 302 300 b 519 252 455 271 498 261 b 550 210 540 243 550 229 b 443 157 550 169 510 157 b 160 214 341 157 247 176 l 90 56 b 440 -14 193 9 310 -14 b 753 212 597 -14 753 47 b 640 381 753 300 714 351 b 453 425 586 401 536 414 b 336 453 393 435 354 444 b 309 494 317 462 309 475 b 393 545 309 530 334 545 b 677 497 486 545 597 530 z m 457 -406 b 532 -167 513 -272 532 -212 b 432 -62 532 -107 489 -62 b 332 -160 379 -62 332 -109 b 414 -257 332 -214 363 -252 b 372 -372 404 -289 391 -328 z "},"Ț":{"ha":865,"x_min":0,"x_max":0,"o":"m 856 937 l 11 937 l 11 732 l 322 732 l 322 0 l 543 0 l 543 732 l 856 732 z m 460 -406 b 534 -167 516 -272 534 -212 b 435 -62 534 -107 492 -62 b 335 -160 382 -62 335 -109 b 416 -257 335 -214 366 -252 b 375 -372 407 -289 393 -328 z "},"ț":{"ha":668,"x_min":0,"x_max":0,"o":"m 550 193 b 464 174 520 180 492 174 b 410 200 440 174 422 182 b 393 306 393 227 393 260 l 393 566 l 566 566 l 566 707 l 393 707 l 393 885 l 179 885 l 179 707 l 49 707 l 49 566 l 179 566 l 179 267 b 192 138 179 206 180 182 b 221 78 198 115 208 96 b 431 -14 262 17 332 -14 b 606 26 491 -15 549 -1 z m 414 -406 b 489 -167 470 -270 489 -211 b 389 -62 489 -107 446 -62 b 289 -160 336 -62 289 -109 b 371 -257 289 -214 320 -252 b 329 -372 363 -285 349 -323 z "},"ˆ":{"ha":626,"x_min":0,"x_max":0,"o":"m 583 888 l 313 1079 l 41 888 l 114 787 l 313 914 l 514 786 z "},"˚":{"ha":436,"x_min":0,"x_max":0,"o":"m 220 782 b 342 835 267 782 307 800 b 395 958 377 869 395 911 b 342 1081 395 1005 377 1046 b 220 1133 307 1116 267 1133 b 95 1081 172 1133 130 1116 b 41 958 59 1046 41 1005 b 95 835 41 911 59 869 b 220 782 130 800 172 782 z m 220 882 b 143 958 176 882 143 915 b 220 1032 143 1000 176 1032 b 293 958 261 1032 293 1000 b 220 882 293 916 262 882 z "},"˜":{"ha":655,"x_min":0,"x_max":0,"o":"m 174 822 b 249 889 193 870 211 889 b 292 878 264 889 281 883 b 338 852 303 872 327 858 b 432 829 366 837 397 829 b 614 983 510 829 578 880 l 484 1031 b 399 964 467 986 438 964 b 317 994 370 964 342 977 b 218 1023 286 1014 253 1023 b 41 868 135 1023 76 972 l 174 822 z "}," ":{"ha":695,"x_min":0,"x_max":0,"o":""}," ":{"ha":1390,"x_min":0,"x_max":0,"o":""}," ":{"ha":695,"x_min":0,"x_max":0,"o":""}," ":{"ha":1390,"x_min":0,"x_max":0,"o":""}," ":{"ha":463,"x_min":0,"x_max":0,"o":""}," ":{"ha":347,"x_min":0,"x_max":0,"o":""}," ":{"ha":231,"x_min":0,"x_max":0,"o":""}," ":{"ha":231,"x_min":0,"x_max":0,"o":""}," ":{"ha":174,"x_min":0,"x_max":0,"o":""}," ":{"ha":444,"x_min":0,"x_max":0,"o":""}," ":{"ha":77,"x_min":0,"x_max":0,"o":""},"‐":{"ha":647,"x_min":0,"x_max":0,"o":"m 590 433 l 56 433 l 56 279 l 590 279 z "},"‑":{"ha":647,"x_min":0,"x_max":0,"o":"m 590 433 l 56 433 l 56 279 l 590 279 z "},"‒":{"ha":647,"x_min":0,"x_max":0,"o":"m 590 433 l 56 433 l 56 279 l 590 279 z "},"–":{"ha":837,"x_min":0,"x_max":0,"o":"m 781 436 l 56 436 l 56 281 l 781 281 z "},"—":{"ha":989,"x_min":0,"x_max":0,"o":"m 933 436 l 56 436 l 56 281 l 933 281 z "},"‘":{"ha":462,"x_min":0,"x_max":0,"o":"m 228 536 b 368 669 307 536 368 597 b 269 796 368 732 330 781 b 366 1025 289 854 321 930 l 228 1088 b 174 972 203 1036 185 997 b 134 876 162 947 149 914 b 92 690 103 797 92 743 b 228 536 92 600 150 536 z "},"’":{"ha":462,"x_min":0,"x_max":0,"o":"m 235 457 b 289 574 260 509 277 549 b 329 670 300 599 313 631 b 371 854 359 748 371 802 b 235 1008 371 945 313 1008 b 94 875 156 1008 94 947 b 193 749 94 812 133 764 b 97 519 173 689 141 612 l 235 457 z "},"‚":{"ha":462,"x_min":0,"x_max":0,"o":"m 235 -196 b 289 -80 260 -144 277 -105 b 329 17 300 -55 313 -22 b 371 201 359 95 371 149 b 235 355 371 292 313 355 b 94 222 156 355 94 295 b 193 96 94 159 133 111 b 97 -134 173 36 141 -41 l 235 -196 z "},"“":{"ha":836,"x_min":0,"x_max":0,"o":"m 228 536 b 368 669 307 536 368 597 b 269 796 368 732 330 781 b 366 1025 289 854 321 930 l 228 1088 b 174 972 203 1036 185 997 b 134 876 162 947 149 914 b 92 690 103 797 92 743 b 228 536 92 600 150 536 z m 602 536 b 742 669 680 536 742 597 b 643 796 742 732 703 781 b 739 1025 663 854 694 930 l 602 1088 b 547 972 576 1036 559 997 b 507 876 536 947 523 914 b 465 690 477 797 465 743 b 602 536 465 600 524 536 z "},"”":{"ha":836,"x_min":0,"x_max":0,"o":"m 608 456 b 663 572 633 509 651 547 b 703 668 673 597 687 629 b 745 852 734 747 745 800 b 608 1007 745 943 686 1007 b 468 873 530 1007 468 946 b 567 747 468 810 507 763 b 471 518 547 688 515 611 z m 235 456 b 289 572 260 509 277 547 b 329 668 300 597 313 629 b 371 852 361 747 371 800 b 235 1007 371 943 313 1007 b 94 873 156 1007 94 946 b 193 747 94 810 133 763 b 97 518 173 688 141 611 z "},"„":{"ha":836,"x_min":0,"x_max":0,"o":"m 608 -196 b 663 -80 633 -144 651 -105 b 703 17 674 -55 687 -22 b 745 201 733 95 745 149 b 608 355 745 292 686 355 b 468 222 530 355 468 295 b 567 96 468 159 507 111 b 471 -134 547 36 515 -41 z m 235 -196 b 289 -80 260 -144 277 -105 b 329 17 300 -55 313 -22 b 371 201 359 95 371 149 b 235 355 371 292 313 355 b 94 222 156 355 94 295 b 193 96 94 159 133 111 b 97 -134 173 36 141 -41 z "},"•":{"ha":581,"x_min":0,"x_max":0,"o":"m 289 534 b 153 479 236 534 191 516 b 97 345 116 441 97 397 b 153 213 97 293 116 249 b 289 158 191 176 236 158 b 427 213 343 158 389 176 b 484 345 465 249 484 293 b 427 479 484 397 465 441 b 289 534 389 516 343 534 z "},"…":{"ha":1208,"x_min":0,"x_max":0,"o":"m 121 203 b 83 111 96 178 83 148 b 215 -14 83 40 141 -14 b 347 111 289 -14 347 40 b 121 203 355 226 197 279 z m 504 203 b 465 111 478 178 465 148 b 597 -14 465 40 524 -14 b 729 111 671 -14 729 40 b 504 203 737 224 578 281 z m 899 203 b 861 111 874 178 861 148 b 993 -14 861 40 919 -14 b 1125 111 1067 -14 1125 40 b 899 203 1133 226 975 279 z "}," ":{"ha":278,"x_min":0,"x_max":0,"o":""},"‰":{"ha":2086,"x_min":0,"x_max":0,"o":"m 576 -72 l 1232 1082 l 1092 1161 l 437 7 z m 370 1131 b 83 806 180 1131 83 978 b 370 479 83 633 180 479 b 654 806 557 479 654 634 b 370 1131 654 977 556 1131 z m 368 953 b 475 804 452 953 475 875 b 368 657 475 733 452 657 b 262 804 286 657 262 733 b 368 953 262 875 286 953 z m 1728 -9 b 1728 643 2094 -20 2092 654 b 1521 528 1640 643 1571 604 b 1317 643 1474 604 1406 643 b 1040 317 1137 643 1040 488 b 1317 -9 1040 145 1137 -9 b 1521 106 1406 -9 1474 29 b 1728 -9 1571 29 1640 -9 z m 1396 441 b 1439 315 1430 409 1439 368 b 1329 168 1439 244 1414 168 b 1228 386 1215 172 1208 297 b 1329 464 1241 427 1274 464 b 1396 441 1356 464 1379 456 z m 1780 441 b 1824 315 1815 409 1824 368 b 1714 168 1824 244 1799 168 b 1613 386 1599 172 1593 297 b 1714 464 1626 427 1659 464 b 1780 441 1741 464 1763 456 z "},"‹":{"ha":569,"x_min":0,"x_max":0,"o":"m 505 139 l 296 346 l 501 550 l 378 673 l 49 345 l 380 14 z "},"›":{"ha":570,"x_min":0,"x_max":0,"o":"m 522 345 l 191 675 l 65 550 l 275 343 l 69 139 l 193 16 z "}," ":{"ha":347,"x_min":0,"x_max":0,"o":""},"⁰":{"ha":665,"x_min":0,"x_max":0,"o":"m 334 1131 b 47 806 144 1131 47 978 b 334 479 47 633 144 479 b 618 806 520 479 618 634 b 334 1131 618 977 519 1131 z m 332 953 b 439 804 416 953 439 876 b 332 657 439 722 408 657 b 227 804 248 657 227 733 b 332 953 227 876 250 953 z "},"ⁱ":{"ha":332,"x_min":0,"x_max":0,"o":"m 167 1183 b 75 1104 115 1183 75 1149 b 167 1028 75 1060 113 1028 b 258 1104 219 1028 258 1060 b 167 1183 258 1149 218 1183 z m 79 489 l 252 489 l 252 966 l 79 966 z "},"⁴":{"ha":639,"x_min":0,"x_max":0,"o":"m 207 754 l 351 999 l 351 754 z m 604 754 l 515 754 l 515 1121 l 261 1121 l 20 730 l 20 624 l 351 624 l 351 489 l 515 489 l 515 624 l 604 624 z "},"⁵":{"ha":610,"x_min":0,"x_max":0,"o":"m 314 479 b 564 694 463 479 564 560 b 357 886 564 828 462 886 b 261 872 327 886 295 882 l 261 965 l 532 965 l 532 1121 l 97 1121 l 97 791 l 235 742 b 309 757 260 752 285 757 b 385 692 354 757 385 732 b 297 624 385 651 351 624 b 155 684 247 624 199 644 l 47 576 b 314 479 109 512 198 479 z "},"⁶":{"ha":650,"x_min":0,"x_max":0,"o":"m 603 703 b 382 895 603 841 492 895 b 220 850 305 895 263 880 b 387 985 231 944 285 985 b 521 964 437 985 481 978 l 571 1099 b 393 1129 519 1120 460 1131 b 47 789 222 1129 47 1044 b 329 479 47 580 153 479 b 603 703 476 479 603 558 z m 424 703 b 329 624 424 652 383 624 b 224 697 269 624 224 648 b 322 775 224 748 264 773 b 424 703 380 775 424 751 z "},"⁷":{"ha":487,"x_min":0,"x_max":0,"o":"m 468 981 l 468 1121 l 9 1121 l 9 964 l 285 964 l 71 522 l 227 463 z "},"⁸":{"ha":704,"x_min":0,"x_max":0,"o":"m 440 485 b 648 665 553 499 648 551 b 534 817 648 738 610 788 b 621 953 591 846 619 891 b 353 1129 621 1086 488 1129 b 82 953 217 1129 84 1086 b 170 815 81 891 110 845 b 57 665 94 786 57 736 b 440 485 57 494 271 463 z m 353 1003 b 444 936 406 1003 444 981 b 353 867 444 890 405 867 b 257 936 300 867 257 890 b 353 1003 257 981 298 1003 z m 353 757 b 471 682 420 757 471 734 b 353 607 471 630 420 607 b 233 682 286 607 233 630 b 353 757 233 734 286 757 z "},"⁹":{"ha":650,"x_min":0,"x_max":0,"o":"m 227 905 b 321 986 227 957 266 986 b 427 911 380 986 427 962 b 326 835 427 859 385 835 b 227 905 269 835 227 857 z m 257 479 b 603 819 427 479 603 564 b 319 1129 603 1028 496 1129 b 125 1070 242 1129 178 1109 b 47 905 73 1030 47 975 b 267 713 47 766 157 713 b 429 757 342 713 386 727 b 262 624 418 664 363 624 b 129 646 213 624 169 631 l 78 510 b 257 479 127 490 187 479 z "},"⁺":{"ha":515,"x_min":0,"x_max":0,"o":"m 488 879 l 319 879 l 319 1048 l 197 1048 l 197 879 l 29 879 l 29 757 l 197 757 l 197 589 l 319 589 l 319 757 l 488 757 z "},"⁼":{"ha":534,"x_min":0,"x_max":0,"o":"m 497 997 l 39 997 l 39 875 l 497 875 z m 497 761 l 39 761 l 39 637 l 497 637 z "},"⁽":{"ha":383,"x_min":0,"x_max":0,"o":"m 279 1219 b 47 760 125 1098 47 945 b 281 330 51 567 138 441 l 372 437 b 192 760 256 528 192 622 b 374 1114 192 912 256 1022 z "},"⁾":{"ha":383,"x_min":0,"x_max":0,"o":"m 104 329 b 338 789 260 451 338 604 b 103 1218 338 968 255 1101 l 11 1109 b 193 789 128 1019 193 924 b 9 435 193 636 128 525 z "},"ⁿ":{"ha":671,"x_min":0,"x_max":0,"o":"m 252 696 b 349 829 252 785 292 829 b 404 806 372 828 391 820 b 421 741 416 793 421 772 l 421 489 l 591 489 l 591 765 b 581 863 591 810 591 826 b 555 911 575 881 567 897 b 401 977 520 955 469 977 b 240 897 330 977 276 950 l 224 966 l 79 966 l 79 489 l 252 489 l 252 696 z "},"₀":{"ha":665,"x_min":0,"x_max":0,"o":"m 334 643 b 334 -9 -47 654 -47 -20 b 618 317 520 -9 618 146 b 334 643 618 488 519 643 z m 332 464 b 439 315 416 464 439 387 b 332 168 439 233 408 168 b 227 315 248 168 227 244 b 332 464 227 387 250 464 z "},"₁":{"ha":472,"x_min":0,"x_max":0,"o":"m 379 632 l 210 632 l 11 443 l 107 347 l 207 443 l 207 0 l 379 0 z "},"₂":{"ha":630,"x_min":0,"x_max":0,"o":"m 583 146 l 358 146 b 504 277 414 181 463 225 b 566 436 545 330 566 382 b 315 640 566 563 469 640 b 47 493 184 640 94 591 l 172 421 b 298 494 200 470 242 494 b 395 412 351 494 395 467 b 283 249 395 351 346 296 b 180 181 256 227 210 197 b 77 119 150 163 102 136 l 77 0 l 583 0 z "},"₃":{"ha":586,"x_min":0,"x_max":0,"o":"m 283 -9 b 547 176 451 -9 547 64 b 431 323 547 248 509 296 b 521 472 491 358 521 408 b 298 642 521 582 426 642 b 58 564 206 642 126 616 l 139 449 b 265 496 178 480 220 496 b 345 431 309 496 345 469 b 208 359 345 383 299 359 l 208 264 b 370 197 324 263 370 241 b 277 136 370 157 338 136 b 131 203 217 136 168 159 l 20 104 b 283 -9 77 35 151 -9 z "},"₄":{"ha":639,"x_min":0,"x_max":0,"o":"m 207 265 l 351 510 l 351 265 z m 604 265 l 515 265 l 515 632 l 261 632 l 20 241 l 20 135 l 351 135 l 351 0 l 515 0 l 515 135 l 604 135 z "},"₅":{"ha":610,"x_min":0,"x_max":0,"o":"m 314 -9 b 564 205 463 -7 564 72 b 357 397 564 339 462 397 b 261 383 327 397 295 393 l 261 476 l 532 476 l 532 632 l 97 632 l 97 304 l 235 253 b 309 268 260 263 285 268 b 385 203 354 268 385 243 b 297 135 385 162 351 135 b 155 195 247 135 199 155 l 47 87 b 314 -9 109 23 198 -9 z "},"₆":{"ha":650,"x_min":0,"x_max":0,"o":"m 603 214 b 382 406 603 352 492 406 b 220 361 305 406 263 391 b 387 496 231 455 285 496 b 521 475 437 496 481 489 l 571 610 b 393 640 519 631 460 642 b 47 300 222 640 47 555 b 329 -9 47 92 153 -9 b 524 51 407 -9 472 12 b 603 214 576 90 603 144 z m 424 214 b 329 135 424 163 383 135 b 224 208 269 135 224 159 b 424 214 211 312 433 311 z "},"₇":{"ha":487,"x_min":0,"x_max":0,"o":"m 468 492 l 468 632 l 9 632 l 9 475 l 285 475 l 71 33 l 227 -26 z "},"₈":{"ha":704,"x_min":0,"x_max":0,"o":"m 440 -4 b 648 176 553 10 648 62 b 534 328 648 249 610 299 b 621 464 591 357 619 402 b 353 640 621 597 488 640 b 82 464 217 640 84 597 b 170 328 81 403 110 357 b 57 176 94 297 57 247 b 440 -4 57 5 271 -26 z m 353 514 b 444 447 406 514 444 492 b 353 378 444 401 405 378 b 257 447 300 378 257 401 b 353 514 257 492 298 514 z m 353 269 b 471 193 420 269 471 245 b 353 118 471 141 420 118 b 233 193 286 118 233 141 b 353 269 233 245 286 269 z "},"₉":{"ha":650,"x_min":0,"x_max":0,"o":"m 227 416 b 321 497 227 468 266 497 b 427 422 381 497 427 473 b 326 346 427 371 385 346 b 227 416 269 346 227 368 z m 257 -9 b 603 330 427 -9 603 75 b 319 640 603 539 496 640 b 125 581 242 640 178 621 b 47 416 73 541 47 486 b 267 224 47 277 157 224 b 429 268 342 224 386 238 b 262 135 419 179 363 135 b 129 157 213 135 169 142 l 78 21 b 257 -9 127 1 187 -9 z "},"₊":{"ha":515,"x_min":0,"x_max":0,"o":"m 488 147 l 319 147 l 319 317 l 197 317 l 197 147 l 29 147 l 29 26 l 197 26 l 197 -142 l 319 -142 l 319 26 l 488 26 z "},"₌":{"ha":534,"x_min":0,"x_max":0,"o":"m 497 267 l 39 267 l 39 143 l 497 143 z m 497 29 l 39 29 l 39 -94 l 497 -94 z "},"₍":{"ha":383,"x_min":0,"x_max":0,"o":"m 279 730 b 47 271 125 609 47 456 b 281 -158 51 79 138 -47 l 372 -52 b 192 271 256 38 192 134 b 374 627 192 423 256 535 z "},"₎":{"ha":383,"x_min":0,"x_max":0,"o":"m 104 -160 b 338 300 260 -38 338 115 b 103 729 338 479 255 612 l 11 623 b 193 300 129 532 193 435 b 9 -54 193 147 128 36 z "},"€":{"ha":916,"x_min":0,"x_max":0,"o":"m 817 183 b 618 142 750 155 684 142 b 392 286 481 142 413 183 l 747 286 l 747 414 l 389 414 b 612 566 407 515 481 566 b 817 524 684 566 751 551 l 871 661 b 567 721 789 701 688 721 b 168 414 369 719 199 625 l 35 414 l 35 286 l 168 286 b 578 -14 199 74 369 -14 b 871 45 694 -14 792 6 z "},"™":{"ha":1699,"x_min":0,"x_max":0,"o":"m 1303 489 l 1449 961 l 1444 489 l 1610 489 l 1610 1121 l 1329 1121 l 1179 615 l 1039 1121 l 746 1121 l 746 489 l 908 489 l 903 989 l 1040 489 z m 600 1121 l 0 1121 l 0 953 l 211 953 l 211 489 l 387 489 l 387 953 l 600 953 z "},"⅐":{"ha":1734,"x_min":0,"x_max":0,"o":"m 492 -72 l 1147 1082 l 1008 1161 l 353 7 z m 473 1121 l 304 1121 l 106 932 l 201 836 l 301 932 l 301 489 l 473 489 z m 1500 492 l 1500 632 l 1042 632 l 1042 475 l 1317 475 l 1103 33 l 1258 -26 z "},"⅑":{"ha":1734,"x_min":0,"x_max":0,"o":"m 492 -72 l 1147 1082 l 1008 1161 l 353 7 z m 473 1121 l 304 1121 l 106 932 l 201 836 l 301 932 l 301 489 l 473 489 z m 1150 416 b 1244 497 1150 468 1190 497 b 1350 422 1305 497 1350 473 b 1250 346 1350 371 1309 346 b 1150 416 1192 346 1150 368 z m 1181 -9 b 1527 330 1350 -9 1527 75 b 1243 640 1527 539 1420 640 b 1049 581 1166 640 1101 621 b 971 416 997 541 971 486 b 1190 224 971 277 1080 224 b 1353 268 1265 224 1310 238 b 1186 135 1343 179 1287 135 b 1053 157 1137 135 1093 142 l 1002 21 b 1181 -9 1051 1 1111 -9 z "},"⅒":{"ha":2083,"x_min":0,"x_max":0,"o":"m 492 -72 l 1147 1082 l 1008 1161 l 353 7 z m 473 1121 l 304 1121 l 106 932 l 201 836 l 301 932 l 301 489 l 473 489 z m 1702 643 b 1702 -9 1320 654 1320 -20 b 1986 317 1888 -9 1986 145 b 1702 643 1986 488 1888 643 z m 1299 632 l 1129 632 l 930 443 l 1026 347 l 1126 443 l 1126 0 l 1299 0 z m 1700 464 b 1807 315 1784 464 1807 386 b 1700 168 1807 244 1784 168 b 1594 315 1617 168 1594 245 b 1700 464 1594 386 1618 464 z "},"⅓":{"ha":1734,"x_min":0,"x_max":0,"o":"m 492 -72 l 1147 1082 l 1008 1161 l 353 7 z m 473 1121 l 304 1121 l 106 932 l 201 836 l 301 932 l 301 489 l 473 489 z m 1190 -9 b 1454 176 1358 -9 1454 64 b 1337 323 1454 248 1415 296 b 1428 472 1398 358 1428 408 b 1206 642 1428 582 1333 642 b 965 564 1113 642 1033 616 l 1046 449 b 1173 496 1085 480 1127 496 b 1251 431 1217 496 1251 469 b 1116 359 1251 383 1206 359 l 1116 264 b 1276 197 1232 263 1276 241 b 1183 136 1276 157 1245 136 b 1038 203 1124 136 1075 159 l 926 104 b 1190 -9 984 35 1058 -9 z "},"⅔":{"ha":1734,"x_min":0,"x_max":0,"o":"m 575 -72 l 1231 1082 l 1092 1161 l 436 7 z m 618 635 l 393 635 b 600 925 488 696 600 809 b 350 1129 600 1052 504 1129 b 82 981 218 1129 129 1080 l 207 909 b 334 983 235 959 277 983 b 429 901 386 983 429 955 b 318 738 429 840 380 785 b 214 670 291 716 244 686 b 111 608 184 652 136 625 l 111 489 l 618 489 z m 1274 -9 b 1537 176 1441 -9 1537 64 b 1421 323 1537 248 1499 296 b 1511 472 1481 358 1511 408 b 1289 642 1511 582 1417 642 b 1048 564 1196 642 1116 616 l 1129 449 b 1255 496 1168 480 1211 496 b 1335 431 1299 496 1335 469 b 1198 359 1335 383 1289 359 l 1198 264 b 1360 197 1314 263 1360 241 b 1267 136 1360 157 1329 136 b 1121 203 1207 136 1158 159 l 1010 104 b 1274 -9 1067 35 1141 -9 z "},"⅕":{"ha":1734,"x_min":0,"x_max":0,"o":"m 492 -72 l 1147 1082 l 1008 1161 l 353 7 z m 473 1121 l 304 1121 l 106 932 l 201 836 l 301 932 l 301 489 l 473 489 z m 1223 -9 b 1474 205 1373 -7 1474 72 b 1267 397 1474 339 1372 397 b 1171 383 1236 397 1204 393 l 1171 476 l 1442 476 l 1442 632 l 1007 632 l 1007 304 l 1145 253 b 1295 203 1223 283 1295 266 b 1207 135 1295 162 1261 135 b 1065 195 1157 135 1109 155 l 957 87 b 1223 -9 1019 23 1107 -9 z "},"⅖":{"ha":1734,"x_min":0,"x_max":0,"o":"m 575 -72 l 1231 1082 l 1092 1161 l 436 7 z m 599 635 l 374 635 b 581 925 469 696 581 809 b 330 1129 581 1052 484 1129 b 62 981 199 1129 109 1080 l 187 909 b 314 983 215 959 257 983 b 410 901 366 983 410 955 b 298 738 410 840 361 785 b 195 670 271 716 224 686 b 92 608 165 652 117 625 l 92 489 l 599 489 z m 1307 -9 b 1557 205 1456 -7 1557 72 b 1350 397 1557 339 1455 397 b 1254 383 1320 397 1288 393 l 1254 476 l 1525 476 l 1525 632 l 1090 632 l 1090 304 l 1227 253 b 1301 268 1253 263 1278 268 b 1378 203 1348 268 1378 243 b 1291 135 1378 162 1344 135 b 1149 195 1240 135 1193 155 l 1040 87 b 1307 -9 1102 23 1191 -9 z "},"⅗":{"ha":1734,"x_min":0,"x_max":0,"o":"m 575 -72 l 1231 1082 l 1092 1161 l 436 7 z m 358 479 b 623 664 526 479 623 551 b 504 811 623 736 583 786 b 596 960 566 848 596 898 b 374 1129 596 1076 493 1129 b 134 1051 281 1129 201 1103 l 214 937 b 340 983 254 968 296 983 b 419 918 385 983 419 957 b 283 847 419 871 374 847 l 283 751 b 444 685 398 751 444 728 b 351 624 444 644 413 624 b 205 690 292 624 244 646 l 94 591 b 358 479 152 521 226 479 z m 1307 -9 b 1557 205 1456 -7 1557 72 b 1350 397 1557 339 1455 397 b 1254 383 1320 397 1288 393 l 1254 476 l 1525 476 l 1525 632 l 1090 632 l 1090 304 l 1227 253 b 1301 268 1253 263 1278 268 b 1378 203 1348 268 1378 243 b 1291 135 1378 162 1344 135 b 1149 195 1240 135 1193 155 l 1040 87 b 1307 -9 1102 23 1191 -9 z "},"⅘":{"ha":1734,"x_min":0,"x_max":0,"o":"m 575 -72 l 1231 1082 l 1092 1161 l 436 7 z m 235 754 l 379 999 l 379 754 z m 632 754 l 543 754 l 543 1121 l 289 1121 l 47 730 l 47 624 l 379 624 l 379 489 l 543 489 l 543 624 l 632 624 z m 1307 -9 b 1557 205 1456 -7 1557 72 b 1350 397 1557 339 1455 397 b 1254 383 1320 397 1288 393 l 1254 476 l 1525 476 l 1525 632 l 1090 632 l 1090 304 l 1227 253 b 1301 268 1253 263 1278 268 b 1378 203 1348 268 1378 243 b 1291 135 1378 162 1344 135 b 1149 195 1240 135 1193 155 l 1040 87 b 1307 -9 1102 23 1191 -9 z "},"⅙":{"ha":1734,"x_min":0,"x_max":0,"o":"m 492 -72 l 1147 1082 l 1008 1161 l 353 7 z m 473 1121 l 304 1121 l 106 932 l 201 836 l 301 932 l 301 489 l 473 489 z m 1492 214 b 1271 406 1492 352 1381 406 b 1108 361 1195 406 1151 391 b 1276 496 1118 451 1175 496 b 1410 475 1326 496 1370 489 l 1459 610 b 1282 640 1408 631 1349 642 b 936 300 1110 640 936 555 b 1218 -9 936 92 1042 -9 b 1413 51 1296 -9 1361 12 b 1492 214 1466 90 1492 144 z m 1312 214 b 1218 135 1312 163 1272 135 b 1112 208 1158 135 1112 159 b 1312 214 1101 311 1320 311 z "},"⅚":{"ha":1734,"x_min":0,"x_max":0,"o":"m 575 -72 l 1231 1082 l 1092 1161 l 436 7 z m 363 479 b 612 694 512 479 612 560 b 406 886 612 828 511 886 b 310 872 376 886 344 882 l 310 965 l 581 965 l 581 1121 l 146 1121 l 146 791 l 283 742 b 357 757 309 752 334 757 b 433 692 402 757 433 732 b 346 624 433 651 399 624 b 204 684 296 624 248 644 l 96 576 b 363 479 157 512 247 479 z m 1575 214 b 1354 406 1575 352 1464 406 b 1192 361 1278 406 1234 391 b 1360 496 1202 451 1258 496 b 1493 475 1409 496 1453 489 l 1543 610 b 1365 640 1491 631 1432 642 b 1019 300 1194 640 1019 555 b 1301 -9 1019 92 1125 -9 b 1496 51 1379 -9 1444 12 b 1575 214 1548 90 1575 144 z m 1396 214 b 1301 135 1396 163 1356 135 b 1196 208 1242 135 1196 159 b 1396 214 1185 311 1404 311 z "},"⅛":{"ha":1734,"x_min":0,"x_max":0,"o":"m 492 -72 l 1147 1082 l 1008 1161 l 353 7 z m 473 1121 l 304 1121 l 106 932 l 201 836 l 301 932 l 301 489 l 473 489 z m 1361 -4 b 1569 176 1474 10 1569 62 b 1455 328 1569 249 1531 299 b 1541 464 1512 357 1540 402 b 1274 640 1541 597 1409 640 b 1003 464 1138 640 1005 597 b 1090 328 1002 403 1031 357 b 978 176 1015 297 978 247 b 1361 -4 978 5 1192 -26 z m 1274 514 b 1365 447 1327 514 1365 492 b 1274 378 1365 401 1326 378 b 1178 447 1221 378 1178 401 b 1274 514 1178 492 1219 514 z m 1358 251 b 1392 193 1380 239 1392 220 b 1358 136 1392 167 1380 148 b 1189 136 1313 111 1234 112 b 1154 193 1166 148 1154 167 b 1189 251 1154 220 1166 239 b 1358 251 1234 275 1313 276 z "},"⅜":{"ha":1734,"x_min":0,"x_max":0,"o":"m 575 -72 l 1231 1082 l 1092 1161 l 436 7 z m 358 479 b 623 664 526 479 623 551 b 504 811 623 736 583 786 b 596 960 566 848 596 898 b 374 1129 596 1076 493 1129 b 134 1051 281 1129 201 1103 l 214 937 b 340 983 254 968 296 983 b 419 918 385 983 419 957 b 283 847 419 871 374 847 l 283 751 b 444 685 398 751 444 728 b 351 624 444 644 413 624 b 205 690 292 624 244 646 l 94 591 b 358 479 152 521 226 479 z m 1444 -4 b 1653 176 1557 10 1653 62 b 1539 328 1653 249 1615 299 b 1625 464 1595 357 1624 402 b 1357 640 1625 597 1492 640 b 1086 464 1221 640 1088 597 b 1174 328 1085 403 1114 357 b 1061 176 1099 297 1061 247 b 1444 -4 1061 5 1275 -26 z m 1357 514 b 1449 447 1411 514 1449 492 b 1261 447 1459 355 1256 355 b 1357 514 1261 492 1303 514 z m 1357 269 b 1475 193 1425 269 1475 245 b 1357 118 1475 141 1424 118 b 1238 193 1290 118 1238 141 b 1357 269 1238 245 1290 269 z "},"⅝":{"ha":1734,"x_min":0,"x_max":0,"o":"m 575 -72 l 1231 1082 l 1092 1161 l 436 7 z m 363 479 b 612 694 512 479 612 560 b 406 886 612 828 511 886 b 310 872 376 886 344 882 l 310 965 l 581 965 l 581 1121 l 146 1121 l 146 791 l 283 742 b 357 757 309 752 334 757 b 433 692 402 757 433 732 b 346 624 433 651 399 624 b 204 684 296 624 248 644 l 96 576 b 363 479 157 512 247 479 z m 1444 -4 b 1653 176 1557 10 1653 62 b 1539 328 1653 249 1615 299 b 1625 464 1595 357 1624 402 b 1357 640 1625 597 1492 640 b 1086 464 1221 640 1088 597 b 1174 328 1085 403 1114 357 b 1061 176 1099 297 1061 247 b 1444 -4 1061 5 1275 -26 z m 1357 514 b 1449 447 1411 514 1449 492 b 1261 447 1459 355 1256 355 b 1357 514 1261 492 1303 514 z m 1357 269 b 1475 193 1425 269 1475 245 b 1357 118 1475 141 1424 118 b 1238 193 1290 118 1238 141 b 1357 269 1238 245 1290 269 z "},"⅞":{"ha":1734,"x_min":0,"x_max":0,"o":"m 492 -72 l 1147 1082 l 1008 1161 l 353 7 z m 591 981 l 591 1121 l 134 1121 l 134 964 l 408 964 l 195 522 l 350 463 z m 1361 -4 b 1569 176 1474 10 1569 62 b 1455 328 1569 249 1531 299 b 1541 464 1512 357 1540 402 b 1274 640 1541 597 1409 640 b 1003 464 1138 640 1005 597 b 1090 328 1002 403 1031 357 b 978 176 1015 297 978 247 b 1361 -4 978 5 1192 -26 z m 1274 514 b 1365 447 1327 514 1365 492 b 1274 378 1365 401 1326 378 b 1178 447 1221 378 1178 401 b 1274 514 1178 492 1219 514 z m 1358 251 b 1392 193 1380 239 1392 220 b 1358 136 1392 167 1380 148 b 1189 136 1313 111 1234 112 b 1154 193 1166 148 1154 167 b 1189 251 1154 220 1166 239 b 1358 251 1234 275 1313 276 z "},"⅟":{"ha":1734,"x_min":0,"x_max":0,"o":"m 492 -72 l 1147 1082 l 1008 1161 l 353 7 z m 473 1121 l 304 1121 l 106 932 l 201 836 l 301 932 l 301 489 l 473 489 z "},"↉":{"ha":1666,"x_min":0,"x_max":0,"o":"m 575 -72 l 1231 1082 l 1092 1161 l 436 7 z m 368 1131 b 82 806 178 1131 82 978 b 368 479 82 633 178 479 b 653 806 555 479 653 634 b 368 1131 653 977 555 1131 z m 367 953 b 473 804 451 953 473 875 b 367 657 473 733 451 657 b 261 804 283 657 261 734 b 367 953 261 875 285 953 z m 1274 -9 b 1537 176 1441 -9 1537 64 b 1421 323 1537 248 1499 296 b 1511 472 1481 358 1511 408 b 1289 642 1511 582 1417 642 b 1048 564 1196 642 1116 616 l 1129 449 b 1255 496 1168 480 1211 496 b 1335 431 1299 496 1335 469 b 1198 359 1335 383 1289 359 l 1198 264 b 1360 197 1314 263 1360 241 b 1267 136 1360 157 1329 136 b 1121 203 1207 136 1158 159 l 1010 104 b 1274 -9 1067 35 1141 -9 z "},"←":{"ha":1057,"x_min":0,"x_max":0,"o":"m 486 275 b 355 393 445 315 401 355 b 603 387 443 389 526 387 l 1014 387 l 1014 579 l 603 579 b 355 574 496 579 414 577 b 486 692 401 612 445 652 l 629 835 l 507 956 l 36 484 l 507 12 l 629 134 z "},"↑":{"ha":1057,"x_min":0,"x_max":0,"o":"m 624 411 b 618 659 624 511 622 593 b 736 528 656 613 696 569 l 879 385 l 1000 507 l 528 978 l 57 507 l 178 385 l 319 528 b 437 659 359 569 399 613 b 432 411 434 581 432 498 l 432 0 l 624 0 l 624 411 z "},"→":{"ha":1057,"x_min":0,"x_max":0,"o":"m 1026 486 l 555 957 l 433 836 l 576 694 b 707 576 621 652 664 612 b 460 582 629 580 547 582 l 49 582 l 49 390 l 460 390 b 707 396 559 390 641 392 b 576 278 664 360 621 321 l 433 135 l 555 14 z "},"↓":{"ha":1057,"x_min":0,"x_max":0,"o":"m 1004 463 l 884 585 l 742 441 b 624 311 699 397 660 354 b 629 558 627 389 629 471 l 629 970 l 437 970 l 437 558 b 443 311 437 452 439 370 b 325 441 407 354 368 397 l 182 585 l 61 463 l 533 -8 z "},"↔":{"ha":1543,"x_min":0,"x_max":0,"o":"m 1507 485 l 1036 956 l 914 835 l 1057 693 b 1187 574 1087 663 1131 623 b 940 579 1129 577 1046 579 l 603 579 b 355 574 496 579 414 577 b 486 692 401 612 445 652 l 629 835 l 507 956 l 36 484 l 507 12 l 629 134 l 486 275 b 355 393 445 315 401 355 b 603 387 443 389 526 387 l 940 387 b 1186 393 1017 387 1099 389 b 1057 275 1134 349 1090 310 l 914 134 l 1036 11 z "},"↕":{"ha":1057,"x_min":0,"x_max":0,"o":"m 1000 189 l 879 311 l 737 168 b 618 37 711 142 671 98 b 624 285 622 103 624 185 l 624 623 b 618 869 624 722 622 804 b 736 739 654 827 693 783 l 879 596 l 1000 718 l 528 1189 l 57 718 l 178 596 l 319 739 b 437 869 362 783 401 827 b 432 623 434 791 432 709 l 432 285 b 437 39 432 199 434 117 b 319 168 391 94 352 136 l 178 311 l 56 189 l 529 -282 z "},"↨":{"ha":1057,"x_min":0,"x_max":0,"o":"m 892 -277 l 534 -277 l 1000 189 l 879 311 l 737 168 b 618 37 711 142 671 98 b 624 285 622 103 624 185 l 624 623 b 618 869 624 722 622 804 b 736 739 654 827 693 783 l 879 596 l 1000 718 l 528 1189 l 57 718 l 178 596 l 319 739 b 437 869 362 783 401 827 b 432 623 434 791 432 709 l 432 285 b 437 39 432 199 434 117 b 319 168 391 94 352 136 l 178 311 l 56 189 l 524 -277 l 167 -277 l 167 -432 l 892 -432 z "},"⇐":{"ha":1057,"x_min":0,"x_max":0,"o":"m 528 257 b 576 256 539 256 555 256 l 1017 256 l 1017 424 l 345 424 b 245 504 314 450 281 476 b 345 583 288 537 321 564 l 1017 583 l 1017 751 l 576 751 b 526 750 555 751 538 751 l 679 903 l 557 1023 l 37 503 l 557 -17 l 679 106 z "},"⇑":{"ha":1124,"x_min":0,"x_max":0,"o":"m 810 0 l 810 440 b 808 490 810 461 809 478 l 961 338 l 1082 460 l 561 979 l 41 460 l 164 338 l 315 489 b 314 440 315 477 314 461 l 314 0 l 482 0 l 482 672 b 562 771 508 703 534 736 b 642 672 595 729 622 696 l 642 0 z "},"⇒":{"ha":1057,"x_min":0,"x_max":0,"o":"m 1028 437 l 509 957 l 386 835 l 538 684 b 489 685 526 684 510 685 l 49 685 l 49 517 l 721 517 b 819 436 764 481 797 454 b 721 357 783 408 750 381 l 49 357 l 49 189 l 489 189 b 539 191 510 189 527 190 l 386 37 l 509 -83 z "},"⇓":{"ha":1057,"x_min":0,"x_max":0,"o":"m 1017 494 l 895 616 l 743 465 b 745 514 744 477 745 493 l 745 954 l 576 954 l 576 282 b 496 183 545 245 518 212 b 416 282 463 225 436 258 l 416 954 l 249 954 l 249 514 b 250 464 249 493 250 476 l 97 616 l -24 494 l 497 -25 z "},"⇔":{"ha":1621,"x_min":0,"x_max":0,"o":"m 1546 490 l 1026 1010 l 905 889 l 1057 737 b 1008 739 1040 739 1024 739 l 612 739 b 564 737 598 739 582 739 l 715 889 l 595 1011 l 75 490 l 595 -29 l 715 92 l 562 244 b 612 243 574 243 591 243 l 1008 243 b 1059 244 1029 243 1046 243 l 905 92 l 1026 -31 z m 380 411 b 282 490 351 435 318 462 b 380 570 318 519 351 545 l 1240 570 b 1339 490 1270 545 1303 519 b 1239 411 1291 453 1257 427 z "},"◼":{"ha":708,"x_min":0,"x_max":0,"o":"m 0 0 l 708 0 l 708 708 l 0 708 z "},"ﬁ":{"ha":1075,"x_min":0,"x_max":0,"o":"m 844 1026 b 725 921 777 1026 725 983 b 844 817 725 861 777 817 b 962 921 911 817 962 861 b 844 1026 962 983 911 1026 z m 736 0 l 950 0 l 950 707 l 736 707 z m 517 707 l 372 707 l 372 730 b 452 823 372 792 399 823 b 524 819 477 823 501 822 l 546 975 b 437 985 507 981 471 985 b 160 707 258 985 160 878 l 32 707 l 32 566 l 160 566 l 160 0 l 372 0 l 372 566 l 517 566 z "},"ﬂ":{"ha":1057,"x_min":0,"x_max":0,"o":"m 933 0 l 933 965 l 720 965 l 720 0 z m 517 707 l 372 707 l 372 730 b 452 823 372 792 399 823 b 524 819 477 823 501 822 l 546 975 b 437 985 507 981 471 985 b 160 707 258 985 160 878 l 32 707 l 32 566 l 160 566 l 160 0 l 372 0 l 372 566 l 517 566 z "}}}
